%TF.GenerationSoftware,KiCad,Pcbnew,8.0.0*%
%TF.CreationDate,2024-03-15T15:48:41+01:00*%
%TF.ProjectId,STM32F103_BluePill,53544d33-3246-4313-9033-5f426c756550,rev?*%
%TF.SameCoordinates,Original*%
%TF.FileFunction,Legend,Bot*%
%TF.FilePolarity,Positive*%
%FSLAX46Y46*%
G04 Gerber Fmt 4.6, Leading zero omitted, Abs format (unit mm)*
G04 Created by KiCad (PCBNEW 8.0.0) date 2024-03-15 15:48:41*
%MOMM*%
%LPD*%
G01*
G04 APERTURE LIST*
%ADD10C,0.200000*%
G04 APERTURE END LIST*
D10*
X141952219Y-89142857D02*
X142761742Y-89142857D01*
X142761742Y-89142857D02*
X142856980Y-89190476D01*
X142856980Y-89190476D02*
X142904600Y-89238095D01*
X142904600Y-89238095D02*
X142952219Y-89333333D01*
X142952219Y-89333333D02*
X142952219Y-89523809D01*
X142952219Y-89523809D02*
X142904600Y-89619047D01*
X142904600Y-89619047D02*
X142856980Y-89666666D01*
X142856980Y-89666666D02*
X142761742Y-89714285D01*
X142761742Y-89714285D02*
X141952219Y-89714285D01*
X142666504Y-90142857D02*
X142666504Y-90619047D01*
X142952219Y-90047619D02*
X141952219Y-90380952D01*
X141952219Y-90380952D02*
X142952219Y-90714285D01*
X142952219Y-91619047D02*
X142476028Y-91285714D01*
X142952219Y-91047619D02*
X141952219Y-91047619D01*
X141952219Y-91047619D02*
X141952219Y-91428571D01*
X141952219Y-91428571D02*
X141999838Y-91523809D01*
X141999838Y-91523809D02*
X142047457Y-91571428D01*
X142047457Y-91571428D02*
X142142695Y-91619047D01*
X142142695Y-91619047D02*
X142285552Y-91619047D01*
X142285552Y-91619047D02*
X142380790Y-91571428D01*
X142380790Y-91571428D02*
X142428409Y-91523809D01*
X142428409Y-91523809D02*
X142476028Y-91428571D01*
X142476028Y-91428571D02*
X142476028Y-91047619D01*
X141952219Y-91904762D02*
X141952219Y-92476190D01*
X142952219Y-92190476D02*
X141952219Y-92190476D01*
X142952219Y-93333333D02*
X142952219Y-92761905D01*
X142952219Y-93047619D02*
X141952219Y-93047619D01*
X141952219Y-93047619D02*
X142095076Y-92952381D01*
X142095076Y-92952381D02*
X142190314Y-92857143D01*
X142190314Y-92857143D02*
X142237933Y-92761905D01*
X142952219Y-95095238D02*
X142476028Y-94761905D01*
X142952219Y-94523810D02*
X141952219Y-94523810D01*
X141952219Y-94523810D02*
X141952219Y-94904762D01*
X141952219Y-94904762D02*
X141999838Y-95000000D01*
X141999838Y-95000000D02*
X142047457Y-95047619D01*
X142047457Y-95047619D02*
X142142695Y-95095238D01*
X142142695Y-95095238D02*
X142285552Y-95095238D01*
X142285552Y-95095238D02*
X142380790Y-95047619D01*
X142380790Y-95047619D02*
X142428409Y-95000000D01*
X142428409Y-95000000D02*
X142476028Y-94904762D01*
X142476028Y-94904762D02*
X142476028Y-94523810D01*
X142952219Y-95428572D02*
X142285552Y-95952381D01*
X142285552Y-95428572D02*
X142952219Y-95952381D01*
X149795400Y-111414285D02*
X149747780Y-111271428D01*
X149747780Y-111271428D02*
X149747780Y-111033333D01*
X149747780Y-111033333D02*
X149795400Y-110938095D01*
X149795400Y-110938095D02*
X149843019Y-110890476D01*
X149843019Y-110890476D02*
X149938257Y-110842857D01*
X149938257Y-110842857D02*
X150033495Y-110842857D01*
X150033495Y-110842857D02*
X150128733Y-110890476D01*
X150128733Y-110890476D02*
X150176352Y-110938095D01*
X150176352Y-110938095D02*
X150223971Y-111033333D01*
X150223971Y-111033333D02*
X150271590Y-111223809D01*
X150271590Y-111223809D02*
X150319209Y-111319047D01*
X150319209Y-111319047D02*
X150366828Y-111366666D01*
X150366828Y-111366666D02*
X150462066Y-111414285D01*
X150462066Y-111414285D02*
X150557304Y-111414285D01*
X150557304Y-111414285D02*
X150652542Y-111366666D01*
X150652542Y-111366666D02*
X150700161Y-111319047D01*
X150700161Y-111319047D02*
X150747780Y-111223809D01*
X150747780Y-111223809D02*
X150747780Y-110985714D01*
X150747780Y-110985714D02*
X150700161Y-110842857D01*
X149747780Y-110414285D02*
X150747780Y-110414285D01*
X150747780Y-110414285D02*
X150747780Y-110176190D01*
X150747780Y-110176190D02*
X150700161Y-110033333D01*
X150700161Y-110033333D02*
X150604923Y-109938095D01*
X150604923Y-109938095D02*
X150509685Y-109890476D01*
X150509685Y-109890476D02*
X150319209Y-109842857D01*
X150319209Y-109842857D02*
X150176352Y-109842857D01*
X150176352Y-109842857D02*
X149985876Y-109890476D01*
X149985876Y-109890476D02*
X149890638Y-109938095D01*
X149890638Y-109938095D02*
X149795400Y-110033333D01*
X149795400Y-110033333D02*
X149747780Y-110176190D01*
X149747780Y-110176190D02*
X149747780Y-110414285D01*
X150033495Y-109461904D02*
X150033495Y-108985714D01*
X149747780Y-109557142D02*
X150747780Y-109223809D01*
X150747780Y-109223809D02*
X149747780Y-108890476D01*
X154199838Y-89538095D02*
X154152219Y-89442857D01*
X154152219Y-89442857D02*
X154152219Y-89300000D01*
X154152219Y-89300000D02*
X154199838Y-89157143D01*
X154199838Y-89157143D02*
X154295076Y-89061905D01*
X154295076Y-89061905D02*
X154390314Y-89014286D01*
X154390314Y-89014286D02*
X154580790Y-88966667D01*
X154580790Y-88966667D02*
X154723647Y-88966667D01*
X154723647Y-88966667D02*
X154914123Y-89014286D01*
X154914123Y-89014286D02*
X155009361Y-89061905D01*
X155009361Y-89061905D02*
X155104600Y-89157143D01*
X155104600Y-89157143D02*
X155152219Y-89300000D01*
X155152219Y-89300000D02*
X155152219Y-89395238D01*
X155152219Y-89395238D02*
X155104600Y-89538095D01*
X155104600Y-89538095D02*
X155056980Y-89585714D01*
X155056980Y-89585714D02*
X154723647Y-89585714D01*
X154723647Y-89585714D02*
X154723647Y-89395238D01*
X155152219Y-90014286D02*
X154152219Y-90014286D01*
X154152219Y-90014286D02*
X155152219Y-90585714D01*
X155152219Y-90585714D02*
X154152219Y-90585714D01*
X155152219Y-91061905D02*
X154152219Y-91061905D01*
X154152219Y-91061905D02*
X154152219Y-91300000D01*
X154152219Y-91300000D02*
X154199838Y-91442857D01*
X154199838Y-91442857D02*
X154295076Y-91538095D01*
X154295076Y-91538095D02*
X154390314Y-91585714D01*
X154390314Y-91585714D02*
X154580790Y-91633333D01*
X154580790Y-91633333D02*
X154723647Y-91633333D01*
X154723647Y-91633333D02*
X154914123Y-91585714D01*
X154914123Y-91585714D02*
X155009361Y-91538095D01*
X155009361Y-91538095D02*
X155104600Y-91442857D01*
X155104600Y-91442857D02*
X155152219Y-91300000D01*
X155152219Y-91300000D02*
X155152219Y-91061905D01*
X147395400Y-110690475D02*
X147347780Y-110547618D01*
X147347780Y-110547618D02*
X147347780Y-110309523D01*
X147347780Y-110309523D02*
X147395400Y-110214285D01*
X147395400Y-110214285D02*
X147443019Y-110166666D01*
X147443019Y-110166666D02*
X147538257Y-110119047D01*
X147538257Y-110119047D02*
X147633495Y-110119047D01*
X147633495Y-110119047D02*
X147728733Y-110166666D01*
X147728733Y-110166666D02*
X147776352Y-110214285D01*
X147776352Y-110214285D02*
X147823971Y-110309523D01*
X147823971Y-110309523D02*
X147871590Y-110499999D01*
X147871590Y-110499999D02*
X147919209Y-110595237D01*
X147919209Y-110595237D02*
X147966828Y-110642856D01*
X147966828Y-110642856D02*
X148062066Y-110690475D01*
X148062066Y-110690475D02*
X148157304Y-110690475D01*
X148157304Y-110690475D02*
X148252542Y-110642856D01*
X148252542Y-110642856D02*
X148300161Y-110595237D01*
X148300161Y-110595237D02*
X148347780Y-110499999D01*
X148347780Y-110499999D02*
X148347780Y-110261904D01*
X148347780Y-110261904D02*
X148300161Y-110119047D01*
X147443019Y-109119047D02*
X147395400Y-109166666D01*
X147395400Y-109166666D02*
X147347780Y-109309523D01*
X147347780Y-109309523D02*
X147347780Y-109404761D01*
X147347780Y-109404761D02*
X147395400Y-109547618D01*
X147395400Y-109547618D02*
X147490638Y-109642856D01*
X147490638Y-109642856D02*
X147585876Y-109690475D01*
X147585876Y-109690475D02*
X147776352Y-109738094D01*
X147776352Y-109738094D02*
X147919209Y-109738094D01*
X147919209Y-109738094D02*
X148109685Y-109690475D01*
X148109685Y-109690475D02*
X148204923Y-109642856D01*
X148204923Y-109642856D02*
X148300161Y-109547618D01*
X148300161Y-109547618D02*
X148347780Y-109404761D01*
X148347780Y-109404761D02*
X148347780Y-109309523D01*
X148347780Y-109309523D02*
X148300161Y-109166666D01*
X148300161Y-109166666D02*
X148252542Y-109119047D01*
X147347780Y-108214285D02*
X147347780Y-108690475D01*
X147347780Y-108690475D02*
X148347780Y-108690475D01*
X153300161Y-110861904D02*
X153347780Y-110957142D01*
X153347780Y-110957142D02*
X153347780Y-111099999D01*
X153347780Y-111099999D02*
X153300161Y-111242856D01*
X153300161Y-111242856D02*
X153204923Y-111338094D01*
X153204923Y-111338094D02*
X153109685Y-111385713D01*
X153109685Y-111385713D02*
X152919209Y-111433332D01*
X152919209Y-111433332D02*
X152776352Y-111433332D01*
X152776352Y-111433332D02*
X152585876Y-111385713D01*
X152585876Y-111385713D02*
X152490638Y-111338094D01*
X152490638Y-111338094D02*
X152395400Y-111242856D01*
X152395400Y-111242856D02*
X152347780Y-111099999D01*
X152347780Y-111099999D02*
X152347780Y-111004761D01*
X152347780Y-111004761D02*
X152395400Y-110861904D01*
X152395400Y-110861904D02*
X152443019Y-110814285D01*
X152443019Y-110814285D02*
X152776352Y-110814285D01*
X152776352Y-110814285D02*
X152776352Y-111004761D01*
X152347780Y-110385713D02*
X153347780Y-110385713D01*
X153347780Y-110385713D02*
X152347780Y-109814285D01*
X152347780Y-109814285D02*
X153347780Y-109814285D01*
X152347780Y-109338094D02*
X153347780Y-109338094D01*
X153347780Y-109338094D02*
X153347780Y-109099999D01*
X153347780Y-109099999D02*
X153300161Y-108957142D01*
X153300161Y-108957142D02*
X153204923Y-108861904D01*
X153204923Y-108861904D02*
X153109685Y-108814285D01*
X153109685Y-108814285D02*
X152919209Y-108766666D01*
X152919209Y-108766666D02*
X152776352Y-108766666D01*
X152776352Y-108766666D02*
X152585876Y-108814285D01*
X152585876Y-108814285D02*
X152490638Y-108861904D01*
X152490638Y-108861904D02*
X152395400Y-108957142D01*
X152395400Y-108957142D02*
X152347780Y-109099999D01*
X152347780Y-109099999D02*
X152347780Y-109338094D01*
X147571266Y-89000000D02*
X147571266Y-89761905D01*
X147952219Y-89380952D02*
X147190314Y-89380952D01*
X146952219Y-90142857D02*
X146952219Y-90761904D01*
X146952219Y-90761904D02*
X147333171Y-90428571D01*
X147333171Y-90428571D02*
X147333171Y-90571428D01*
X147333171Y-90571428D02*
X147380790Y-90666666D01*
X147380790Y-90666666D02*
X147428409Y-90714285D01*
X147428409Y-90714285D02*
X147523647Y-90761904D01*
X147523647Y-90761904D02*
X147761742Y-90761904D01*
X147761742Y-90761904D02*
X147856980Y-90714285D01*
X147856980Y-90714285D02*
X147904600Y-90666666D01*
X147904600Y-90666666D02*
X147952219Y-90571428D01*
X147952219Y-90571428D02*
X147952219Y-90285714D01*
X147952219Y-90285714D02*
X147904600Y-90190476D01*
X147904600Y-90190476D02*
X147856980Y-90142857D01*
X147856980Y-91190476D02*
X147904600Y-91238095D01*
X147904600Y-91238095D02*
X147952219Y-91190476D01*
X147952219Y-91190476D02*
X147904600Y-91142857D01*
X147904600Y-91142857D02*
X147856980Y-91190476D01*
X147856980Y-91190476D02*
X147952219Y-91190476D01*
X146952219Y-91571428D02*
X146952219Y-92190475D01*
X146952219Y-92190475D02*
X147333171Y-91857142D01*
X147333171Y-91857142D02*
X147333171Y-91999999D01*
X147333171Y-91999999D02*
X147380790Y-92095237D01*
X147380790Y-92095237D02*
X147428409Y-92142856D01*
X147428409Y-92142856D02*
X147523647Y-92190475D01*
X147523647Y-92190475D02*
X147761742Y-92190475D01*
X147761742Y-92190475D02*
X147856980Y-92142856D01*
X147856980Y-92142856D02*
X147904600Y-92095237D01*
X147904600Y-92095237D02*
X147952219Y-91999999D01*
X147952219Y-91999999D02*
X147952219Y-91714285D01*
X147952219Y-91714285D02*
X147904600Y-91619047D01*
X147904600Y-91619047D02*
X147856980Y-91571428D01*
X146952219Y-92476190D02*
X147952219Y-92809523D01*
X147952219Y-92809523D02*
X146952219Y-93142856D01*
X153261904Y-102452219D02*
X153261904Y-101785552D01*
X153261904Y-101976028D02*
X153214285Y-101880790D01*
X153214285Y-101880790D02*
X153166666Y-101833171D01*
X153166666Y-101833171D02*
X153071428Y-101785552D01*
X153071428Y-101785552D02*
X152976190Y-101785552D01*
X152499999Y-102452219D02*
X152595237Y-102404600D01*
X152595237Y-102404600D02*
X152642856Y-102356980D01*
X152642856Y-102356980D02*
X152690475Y-102261742D01*
X152690475Y-102261742D02*
X152690475Y-101976028D01*
X152690475Y-101976028D02*
X152642856Y-101880790D01*
X152642856Y-101880790D02*
X152595237Y-101833171D01*
X152595237Y-101833171D02*
X152499999Y-101785552D01*
X152499999Y-101785552D02*
X152357142Y-101785552D01*
X152357142Y-101785552D02*
X152261904Y-101833171D01*
X152261904Y-101833171D02*
X152214285Y-101880790D01*
X152214285Y-101880790D02*
X152166666Y-101976028D01*
X152166666Y-101976028D02*
X152166666Y-102261742D01*
X152166666Y-102261742D02*
X152214285Y-102356980D01*
X152214285Y-102356980D02*
X152261904Y-102404600D01*
X152261904Y-102404600D02*
X152357142Y-102452219D01*
X152357142Y-102452219D02*
X152499999Y-102452219D01*
X151833332Y-101785552D02*
X151595237Y-102452219D01*
X151357142Y-101785552D02*
X151595237Y-102452219D01*
X151595237Y-102452219D02*
X151690475Y-102690314D01*
X151690475Y-102690314D02*
X151738094Y-102737933D01*
X151738094Y-102737933D02*
X151833332Y-102785552D01*
X150547618Y-102404600D02*
X150642856Y-102452219D01*
X150642856Y-102452219D02*
X150833332Y-102452219D01*
X150833332Y-102452219D02*
X150928570Y-102404600D01*
X150928570Y-102404600D02*
X150976189Y-102356980D01*
X150976189Y-102356980D02*
X151023808Y-102261742D01*
X151023808Y-102261742D02*
X151023808Y-101976028D01*
X151023808Y-101976028D02*
X150976189Y-101880790D01*
X150976189Y-101880790D02*
X150928570Y-101833171D01*
X150928570Y-101833171D02*
X150833332Y-101785552D01*
X150833332Y-101785552D02*
X150642856Y-101785552D01*
X150642856Y-101785552D02*
X150547618Y-101833171D01*
X149738094Y-102404600D02*
X149833332Y-102452219D01*
X149833332Y-102452219D02*
X150023808Y-102452219D01*
X150023808Y-102452219D02*
X150119046Y-102404600D01*
X150119046Y-102404600D02*
X150166665Y-102309361D01*
X150166665Y-102309361D02*
X150166665Y-101928409D01*
X150166665Y-101928409D02*
X150119046Y-101833171D01*
X150119046Y-101833171D02*
X150023808Y-101785552D01*
X150023808Y-101785552D02*
X149833332Y-101785552D01*
X149833332Y-101785552D02*
X149738094Y-101833171D01*
X149738094Y-101833171D02*
X149690475Y-101928409D01*
X149690475Y-101928409D02*
X149690475Y-102023647D01*
X149690475Y-102023647D02*
X150166665Y-102118885D01*
X149261903Y-102356980D02*
X149214284Y-102404600D01*
X149214284Y-102404600D02*
X149261903Y-102452219D01*
X149261903Y-102452219D02*
X149309522Y-102404600D01*
X149309522Y-102404600D02*
X149261903Y-102356980D01*
X149261903Y-102356980D02*
X149261903Y-102452219D01*
X148357142Y-102452219D02*
X148357142Y-101452219D01*
X148357142Y-102404600D02*
X148452380Y-102452219D01*
X148452380Y-102452219D02*
X148642856Y-102452219D01*
X148642856Y-102452219D02*
X148738094Y-102404600D01*
X148738094Y-102404600D02*
X148785713Y-102356980D01*
X148785713Y-102356980D02*
X148833332Y-102261742D01*
X148833332Y-102261742D02*
X148833332Y-101976028D01*
X148833332Y-101976028D02*
X148785713Y-101880790D01*
X148785713Y-101880790D02*
X148738094Y-101833171D01*
X148738094Y-101833171D02*
X148642856Y-101785552D01*
X148642856Y-101785552D02*
X148452380Y-101785552D01*
X148452380Y-101785552D02*
X148357142Y-101833171D01*
X147499999Y-102404600D02*
X147595237Y-102452219D01*
X147595237Y-102452219D02*
X147785713Y-102452219D01*
X147785713Y-102452219D02*
X147880951Y-102404600D01*
X147880951Y-102404600D02*
X147928570Y-102309361D01*
X147928570Y-102309361D02*
X147928570Y-101928409D01*
X147928570Y-101928409D02*
X147880951Y-101833171D01*
X147880951Y-101833171D02*
X147785713Y-101785552D01*
X147785713Y-101785552D02*
X147595237Y-101785552D01*
X147595237Y-101785552D02*
X147499999Y-101833171D01*
X147499999Y-101833171D02*
X147452380Y-101928409D01*
X147452380Y-101928409D02*
X147452380Y-102023647D01*
X147452380Y-102023647D02*
X147928570Y-102118885D01*
X147119046Y-101785552D02*
X146880951Y-102452219D01*
X146880951Y-102452219D02*
X146642856Y-101785552D01*
X157604600Y-89138095D02*
X157652219Y-89280952D01*
X157652219Y-89280952D02*
X157652219Y-89519047D01*
X157652219Y-89519047D02*
X157604600Y-89614285D01*
X157604600Y-89614285D02*
X157556980Y-89661904D01*
X157556980Y-89661904D02*
X157461742Y-89709523D01*
X157461742Y-89709523D02*
X157366504Y-89709523D01*
X157366504Y-89709523D02*
X157271266Y-89661904D01*
X157271266Y-89661904D02*
X157223647Y-89614285D01*
X157223647Y-89614285D02*
X157176028Y-89519047D01*
X157176028Y-89519047D02*
X157128409Y-89328571D01*
X157128409Y-89328571D02*
X157080790Y-89233333D01*
X157080790Y-89233333D02*
X157033171Y-89185714D01*
X157033171Y-89185714D02*
X156937933Y-89138095D01*
X156937933Y-89138095D02*
X156842695Y-89138095D01*
X156842695Y-89138095D02*
X156747457Y-89185714D01*
X156747457Y-89185714D02*
X156699838Y-89233333D01*
X156699838Y-89233333D02*
X156652219Y-89328571D01*
X156652219Y-89328571D02*
X156652219Y-89566666D01*
X156652219Y-89566666D02*
X156699838Y-89709523D01*
X156652219Y-90042857D02*
X157652219Y-90280952D01*
X157652219Y-90280952D02*
X156937933Y-90471428D01*
X156937933Y-90471428D02*
X157652219Y-90661904D01*
X157652219Y-90661904D02*
X156652219Y-90900000D01*
X157556980Y-91852380D02*
X157604600Y-91804761D01*
X157604600Y-91804761D02*
X157652219Y-91661904D01*
X157652219Y-91661904D02*
X157652219Y-91566666D01*
X157652219Y-91566666D02*
X157604600Y-91423809D01*
X157604600Y-91423809D02*
X157509361Y-91328571D01*
X157509361Y-91328571D02*
X157414123Y-91280952D01*
X157414123Y-91280952D02*
X157223647Y-91233333D01*
X157223647Y-91233333D02*
X157080790Y-91233333D01*
X157080790Y-91233333D02*
X156890314Y-91280952D01*
X156890314Y-91280952D02*
X156795076Y-91328571D01*
X156795076Y-91328571D02*
X156699838Y-91423809D01*
X156699838Y-91423809D02*
X156652219Y-91566666D01*
X156652219Y-91566666D02*
X156652219Y-91661904D01*
X156652219Y-91661904D02*
X156699838Y-91804761D01*
X156699838Y-91804761D02*
X156747457Y-91852380D01*
X157652219Y-92757142D02*
X157652219Y-92280952D01*
X157652219Y-92280952D02*
X156652219Y-92280952D01*
X157652219Y-93090476D02*
X156652219Y-93090476D01*
X157652219Y-93661904D02*
X157080790Y-93233333D01*
X156652219Y-93661904D02*
X157223647Y-93090476D01*
X162371266Y-88900000D02*
X162371266Y-89661905D01*
X162752219Y-89280952D02*
X161990314Y-89280952D01*
X161752219Y-90042857D02*
X161752219Y-90661904D01*
X161752219Y-90661904D02*
X162133171Y-90328571D01*
X162133171Y-90328571D02*
X162133171Y-90471428D01*
X162133171Y-90471428D02*
X162180790Y-90566666D01*
X162180790Y-90566666D02*
X162228409Y-90614285D01*
X162228409Y-90614285D02*
X162323647Y-90661904D01*
X162323647Y-90661904D02*
X162561742Y-90661904D01*
X162561742Y-90661904D02*
X162656980Y-90614285D01*
X162656980Y-90614285D02*
X162704600Y-90566666D01*
X162704600Y-90566666D02*
X162752219Y-90471428D01*
X162752219Y-90471428D02*
X162752219Y-90185714D01*
X162752219Y-90185714D02*
X162704600Y-90090476D01*
X162704600Y-90090476D02*
X162656980Y-90042857D01*
X162656980Y-91090476D02*
X162704600Y-91138095D01*
X162704600Y-91138095D02*
X162752219Y-91090476D01*
X162752219Y-91090476D02*
X162704600Y-91042857D01*
X162704600Y-91042857D02*
X162656980Y-91090476D01*
X162656980Y-91090476D02*
X162752219Y-91090476D01*
X161752219Y-91471428D02*
X161752219Y-92090475D01*
X161752219Y-92090475D02*
X162133171Y-91757142D01*
X162133171Y-91757142D02*
X162133171Y-91899999D01*
X162133171Y-91899999D02*
X162180790Y-91995237D01*
X162180790Y-91995237D02*
X162228409Y-92042856D01*
X162228409Y-92042856D02*
X162323647Y-92090475D01*
X162323647Y-92090475D02*
X162561742Y-92090475D01*
X162561742Y-92090475D02*
X162656980Y-92042856D01*
X162656980Y-92042856D02*
X162704600Y-91995237D01*
X162704600Y-91995237D02*
X162752219Y-91899999D01*
X162752219Y-91899999D02*
X162752219Y-91614285D01*
X162752219Y-91614285D02*
X162704600Y-91519047D01*
X162704600Y-91519047D02*
X162656980Y-91471428D01*
X161752219Y-92376190D02*
X162752219Y-92709523D01*
X162752219Y-92709523D02*
X161752219Y-93042856D01*
X157886903Y-100867873D02*
X157886903Y-99617873D01*
X157886903Y-99617873D02*
X157470237Y-100510730D01*
X157470237Y-100510730D02*
X157053570Y-99617873D01*
X157053570Y-99617873D02*
X157053570Y-100867873D01*
X155922618Y-100867873D02*
X155922618Y-100213111D01*
X155922618Y-100213111D02*
X155982142Y-100094064D01*
X155982142Y-100094064D02*
X156101190Y-100034540D01*
X156101190Y-100034540D02*
X156339285Y-100034540D01*
X156339285Y-100034540D02*
X156458332Y-100094064D01*
X155922618Y-100808350D02*
X156041666Y-100867873D01*
X156041666Y-100867873D02*
X156339285Y-100867873D01*
X156339285Y-100867873D02*
X156458332Y-100808350D01*
X156458332Y-100808350D02*
X156517856Y-100689302D01*
X156517856Y-100689302D02*
X156517856Y-100570254D01*
X156517856Y-100570254D02*
X156458332Y-100451207D01*
X156458332Y-100451207D02*
X156339285Y-100391683D01*
X156339285Y-100391683D02*
X156041666Y-100391683D01*
X156041666Y-100391683D02*
X155922618Y-100332159D01*
X154791666Y-100867873D02*
X154791666Y-99617873D01*
X154791666Y-100808350D02*
X154910714Y-100867873D01*
X154910714Y-100867873D02*
X155148809Y-100867873D01*
X155148809Y-100867873D02*
X155267857Y-100808350D01*
X155267857Y-100808350D02*
X155327380Y-100748826D01*
X155327380Y-100748826D02*
X155386904Y-100629778D01*
X155386904Y-100629778D02*
X155386904Y-100272635D01*
X155386904Y-100272635D02*
X155327380Y-100153588D01*
X155327380Y-100153588D02*
X155267857Y-100094064D01*
X155267857Y-100094064D02*
X155148809Y-100034540D01*
X155148809Y-100034540D02*
X154910714Y-100034540D01*
X154910714Y-100034540D02*
X154791666Y-100094064D01*
X153720238Y-100808350D02*
X153839286Y-100867873D01*
X153839286Y-100867873D02*
X154077381Y-100867873D01*
X154077381Y-100867873D02*
X154196428Y-100808350D01*
X154196428Y-100808350D02*
X154255952Y-100689302D01*
X154255952Y-100689302D02*
X154255952Y-100213111D01*
X154255952Y-100213111D02*
X154196428Y-100094064D01*
X154196428Y-100094064D02*
X154077381Y-100034540D01*
X154077381Y-100034540D02*
X153839286Y-100034540D01*
X153839286Y-100034540D02*
X153720238Y-100094064D01*
X153720238Y-100094064D02*
X153660714Y-100213111D01*
X153660714Y-100213111D02*
X153660714Y-100332159D01*
X153660714Y-100332159D02*
X154255952Y-100451207D01*
X152172618Y-100867873D02*
X152172618Y-100034540D01*
X152172618Y-99617873D02*
X152232142Y-99677397D01*
X152232142Y-99677397D02*
X152172618Y-99736921D01*
X152172618Y-99736921D02*
X152113095Y-99677397D01*
X152113095Y-99677397D02*
X152172618Y-99617873D01*
X152172618Y-99617873D02*
X152172618Y-99736921D01*
X151577380Y-100034540D02*
X151577380Y-100867873D01*
X151577380Y-100153588D02*
X151517857Y-100094064D01*
X151517857Y-100094064D02*
X151398809Y-100034540D01*
X151398809Y-100034540D02*
X151220238Y-100034540D01*
X151220238Y-100034540D02*
X151101190Y-100094064D01*
X151101190Y-100094064D02*
X151041666Y-100213111D01*
X151041666Y-100213111D02*
X151041666Y-100867873D01*
X148839286Y-99677397D02*
X148958333Y-99617873D01*
X148958333Y-99617873D02*
X149136905Y-99617873D01*
X149136905Y-99617873D02*
X149315476Y-99677397D01*
X149315476Y-99677397D02*
X149434524Y-99796445D01*
X149434524Y-99796445D02*
X149494047Y-99915492D01*
X149494047Y-99915492D02*
X149553571Y-100153588D01*
X149553571Y-100153588D02*
X149553571Y-100332159D01*
X149553571Y-100332159D02*
X149494047Y-100570254D01*
X149494047Y-100570254D02*
X149434524Y-100689302D01*
X149434524Y-100689302D02*
X149315476Y-100808350D01*
X149315476Y-100808350D02*
X149136905Y-100867873D01*
X149136905Y-100867873D02*
X149017857Y-100867873D01*
X149017857Y-100867873D02*
X148839286Y-100808350D01*
X148839286Y-100808350D02*
X148779762Y-100748826D01*
X148779762Y-100748826D02*
X148779762Y-100332159D01*
X148779762Y-100332159D02*
X149017857Y-100332159D01*
X147767857Y-100808350D02*
X147886905Y-100867873D01*
X147886905Y-100867873D02*
X148125000Y-100867873D01*
X148125000Y-100867873D02*
X148244047Y-100808350D01*
X148244047Y-100808350D02*
X148303571Y-100689302D01*
X148303571Y-100689302D02*
X148303571Y-100213111D01*
X148303571Y-100213111D02*
X148244047Y-100094064D01*
X148244047Y-100094064D02*
X148125000Y-100034540D01*
X148125000Y-100034540D02*
X147886905Y-100034540D01*
X147886905Y-100034540D02*
X147767857Y-100094064D01*
X147767857Y-100094064D02*
X147708333Y-100213111D01*
X147708333Y-100213111D02*
X147708333Y-100332159D01*
X147708333Y-100332159D02*
X148303571Y-100451207D01*
X147172618Y-100867873D02*
X147172618Y-100034540D01*
X147172618Y-100272635D02*
X147113095Y-100153588D01*
X147113095Y-100153588D02*
X147053571Y-100094064D01*
X147053571Y-100094064D02*
X146934523Y-100034540D01*
X146934523Y-100034540D02*
X146815476Y-100034540D01*
X146398808Y-100867873D02*
X146398808Y-100034540D01*
X146398808Y-100153588D02*
X146339285Y-100094064D01*
X146339285Y-100094064D02*
X146220237Y-100034540D01*
X146220237Y-100034540D02*
X146041666Y-100034540D01*
X146041666Y-100034540D02*
X145922618Y-100094064D01*
X145922618Y-100094064D02*
X145863094Y-100213111D01*
X145863094Y-100213111D02*
X145863094Y-100867873D01*
X145863094Y-100213111D02*
X145803570Y-100094064D01*
X145803570Y-100094064D02*
X145684523Y-100034540D01*
X145684523Y-100034540D02*
X145505951Y-100034540D01*
X145505951Y-100034540D02*
X145386904Y-100094064D01*
X145386904Y-100094064D02*
X145327380Y-100213111D01*
X145327380Y-100213111D02*
X145327380Y-100867873D01*
X144196427Y-100867873D02*
X144196427Y-100213111D01*
X144196427Y-100213111D02*
X144255951Y-100094064D01*
X144255951Y-100094064D02*
X144374999Y-100034540D01*
X144374999Y-100034540D02*
X144613094Y-100034540D01*
X144613094Y-100034540D02*
X144732141Y-100094064D01*
X144196427Y-100808350D02*
X144315475Y-100867873D01*
X144315475Y-100867873D02*
X144613094Y-100867873D01*
X144613094Y-100867873D02*
X144732141Y-100808350D01*
X144732141Y-100808350D02*
X144791665Y-100689302D01*
X144791665Y-100689302D02*
X144791665Y-100570254D01*
X144791665Y-100570254D02*
X144732141Y-100451207D01*
X144732141Y-100451207D02*
X144613094Y-100391683D01*
X144613094Y-100391683D02*
X144315475Y-100391683D01*
X144315475Y-100391683D02*
X144196427Y-100332159D01*
X143601189Y-100034540D02*
X143601189Y-100867873D01*
X143601189Y-100153588D02*
X143541666Y-100094064D01*
X143541666Y-100094064D02*
X143422618Y-100034540D01*
X143422618Y-100034540D02*
X143244047Y-100034540D01*
X143244047Y-100034540D02*
X143124999Y-100094064D01*
X143124999Y-100094064D02*
X143065475Y-100213111D01*
X143065475Y-100213111D02*
X143065475Y-100867873D01*
X142589285Y-100034540D02*
X142291666Y-100867873D01*
X141994047Y-100034540D02*
X142291666Y-100867873D01*
X142291666Y-100867873D02*
X142410714Y-101165492D01*
X142410714Y-101165492D02*
X142470237Y-101225016D01*
X142470237Y-101225016D02*
X142589285Y-101284540D01*
X145128733Y-111499999D02*
X145128733Y-110738095D01*
X144747780Y-111119047D02*
X145509685Y-111119047D01*
X145747780Y-110357142D02*
X145747780Y-109738095D01*
X145747780Y-109738095D02*
X145366828Y-110071428D01*
X145366828Y-110071428D02*
X145366828Y-109928571D01*
X145366828Y-109928571D02*
X145319209Y-109833333D01*
X145319209Y-109833333D02*
X145271590Y-109785714D01*
X145271590Y-109785714D02*
X145176352Y-109738095D01*
X145176352Y-109738095D02*
X144938257Y-109738095D01*
X144938257Y-109738095D02*
X144843019Y-109785714D01*
X144843019Y-109785714D02*
X144795400Y-109833333D01*
X144795400Y-109833333D02*
X144747780Y-109928571D01*
X144747780Y-109928571D02*
X144747780Y-110214285D01*
X144747780Y-110214285D02*
X144795400Y-110309523D01*
X144795400Y-110309523D02*
X144843019Y-110357142D01*
X144843019Y-109309523D02*
X144795400Y-109261904D01*
X144795400Y-109261904D02*
X144747780Y-109309523D01*
X144747780Y-109309523D02*
X144795400Y-109357142D01*
X144795400Y-109357142D02*
X144843019Y-109309523D01*
X144843019Y-109309523D02*
X144747780Y-109309523D01*
X145747780Y-108928571D02*
X145747780Y-108309524D01*
X145747780Y-108309524D02*
X145366828Y-108642857D01*
X145366828Y-108642857D02*
X145366828Y-108500000D01*
X145366828Y-108500000D02*
X145319209Y-108404762D01*
X145319209Y-108404762D02*
X145271590Y-108357143D01*
X145271590Y-108357143D02*
X145176352Y-108309524D01*
X145176352Y-108309524D02*
X144938257Y-108309524D01*
X144938257Y-108309524D02*
X144843019Y-108357143D01*
X144843019Y-108357143D02*
X144795400Y-108404762D01*
X144795400Y-108404762D02*
X144747780Y-108500000D01*
X144747780Y-108500000D02*
X144747780Y-108785714D01*
X144747780Y-108785714D02*
X144795400Y-108880952D01*
X144795400Y-108880952D02*
X144843019Y-108928571D01*
X145747780Y-108023809D02*
X144747780Y-107690476D01*
X144747780Y-107690476D02*
X145747780Y-107357143D01*
X144652219Y-89161904D02*
X145461742Y-89161904D01*
X145461742Y-89161904D02*
X145556980Y-89209523D01*
X145556980Y-89209523D02*
X145604600Y-89257142D01*
X145604600Y-89257142D02*
X145652219Y-89352380D01*
X145652219Y-89352380D02*
X145652219Y-89542856D01*
X145652219Y-89542856D02*
X145604600Y-89638094D01*
X145604600Y-89638094D02*
X145556980Y-89685713D01*
X145556980Y-89685713D02*
X145461742Y-89733332D01*
X145461742Y-89733332D02*
X144652219Y-89733332D01*
X145366504Y-90161904D02*
X145366504Y-90638094D01*
X145652219Y-90066666D02*
X144652219Y-90399999D01*
X144652219Y-90399999D02*
X145652219Y-90733332D01*
X145652219Y-91638094D02*
X145176028Y-91304761D01*
X145652219Y-91066666D02*
X144652219Y-91066666D01*
X144652219Y-91066666D02*
X144652219Y-91447618D01*
X144652219Y-91447618D02*
X144699838Y-91542856D01*
X144699838Y-91542856D02*
X144747457Y-91590475D01*
X144747457Y-91590475D02*
X144842695Y-91638094D01*
X144842695Y-91638094D02*
X144985552Y-91638094D01*
X144985552Y-91638094D02*
X145080790Y-91590475D01*
X145080790Y-91590475D02*
X145128409Y-91542856D01*
X145128409Y-91542856D02*
X145176028Y-91447618D01*
X145176028Y-91447618D02*
X145176028Y-91066666D01*
X144652219Y-91923809D02*
X144652219Y-92495237D01*
X145652219Y-92209523D02*
X144652219Y-92209523D01*
X145652219Y-93352380D02*
X145652219Y-92780952D01*
X145652219Y-93066666D02*
X144652219Y-93066666D01*
X144652219Y-93066666D02*
X144795076Y-92971428D01*
X144795076Y-92971428D02*
X144890314Y-92876190D01*
X144890314Y-92876190D02*
X144937933Y-92780952D01*
X144652219Y-94400000D02*
X144652219Y-94971428D01*
X145652219Y-94685714D02*
X144652219Y-94685714D01*
X145652219Y-95209524D02*
X144985552Y-95733333D01*
X144985552Y-95209524D02*
X145652219Y-95733333D01*
X139399838Y-89638095D02*
X139352219Y-89542857D01*
X139352219Y-89542857D02*
X139352219Y-89400000D01*
X139352219Y-89400000D02*
X139399838Y-89257143D01*
X139399838Y-89257143D02*
X139495076Y-89161905D01*
X139495076Y-89161905D02*
X139590314Y-89114286D01*
X139590314Y-89114286D02*
X139780790Y-89066667D01*
X139780790Y-89066667D02*
X139923647Y-89066667D01*
X139923647Y-89066667D02*
X140114123Y-89114286D01*
X140114123Y-89114286D02*
X140209361Y-89161905D01*
X140209361Y-89161905D02*
X140304600Y-89257143D01*
X140304600Y-89257143D02*
X140352219Y-89400000D01*
X140352219Y-89400000D02*
X140352219Y-89495238D01*
X140352219Y-89495238D02*
X140304600Y-89638095D01*
X140304600Y-89638095D02*
X140256980Y-89685714D01*
X140256980Y-89685714D02*
X139923647Y-89685714D01*
X139923647Y-89685714D02*
X139923647Y-89495238D01*
X140352219Y-90114286D02*
X139352219Y-90114286D01*
X139352219Y-90114286D02*
X140352219Y-90685714D01*
X140352219Y-90685714D02*
X139352219Y-90685714D01*
X140352219Y-91161905D02*
X139352219Y-91161905D01*
X139352219Y-91161905D02*
X139352219Y-91400000D01*
X139352219Y-91400000D02*
X139399838Y-91542857D01*
X139399838Y-91542857D02*
X139495076Y-91638095D01*
X139495076Y-91638095D02*
X139590314Y-91685714D01*
X139590314Y-91685714D02*
X139780790Y-91733333D01*
X139780790Y-91733333D02*
X139923647Y-91733333D01*
X139923647Y-91733333D02*
X140114123Y-91685714D01*
X140114123Y-91685714D02*
X140209361Y-91638095D01*
X140209361Y-91638095D02*
X140304600Y-91542857D01*
X140304600Y-91542857D02*
X140352219Y-91400000D01*
X140352219Y-91400000D02*
X140352219Y-91161905D01*
X170461904Y-97711658D02*
X169688095Y-97711658D01*
X169688095Y-97711658D02*
X170104761Y-98187849D01*
X170104761Y-98187849D02*
X169926190Y-98187849D01*
X169926190Y-98187849D02*
X169807142Y-98247373D01*
X169807142Y-98247373D02*
X169747618Y-98306896D01*
X169747618Y-98306896D02*
X169688095Y-98425944D01*
X169688095Y-98425944D02*
X169688095Y-98723563D01*
X169688095Y-98723563D02*
X169747618Y-98842611D01*
X169747618Y-98842611D02*
X169807142Y-98902135D01*
X169807142Y-98902135D02*
X169926190Y-98961658D01*
X169926190Y-98961658D02*
X170283333Y-98961658D01*
X170283333Y-98961658D02*
X170402380Y-98902135D01*
X170402380Y-98902135D02*
X170461904Y-98842611D01*
X168259523Y-97652135D02*
X169330952Y-99259277D01*
X167902380Y-97830706D02*
X167842856Y-97771182D01*
X167842856Y-97771182D02*
X167723809Y-97711658D01*
X167723809Y-97711658D02*
X167426190Y-97711658D01*
X167426190Y-97711658D02*
X167307142Y-97771182D01*
X167307142Y-97771182D02*
X167247618Y-97830706D01*
X167247618Y-97830706D02*
X167188095Y-97949754D01*
X167188095Y-97949754D02*
X167188095Y-98068801D01*
X167188095Y-98068801D02*
X167247618Y-98247373D01*
X167247618Y-98247373D02*
X167961904Y-98961658D01*
X167961904Y-98961658D02*
X167188095Y-98961658D01*
X166116666Y-98128325D02*
X166116666Y-98961658D01*
X166414285Y-97652135D02*
X166711904Y-98544992D01*
X166711904Y-98544992D02*
X165938095Y-98544992D01*
X169985713Y-100140755D02*
X169688094Y-100974088D01*
X169688094Y-100974088D02*
X169390475Y-100140755D01*
X168676189Y-99724088D02*
X168557142Y-99724088D01*
X168557142Y-99724088D02*
X168438094Y-99783612D01*
X168438094Y-99783612D02*
X168378570Y-99843136D01*
X168378570Y-99843136D02*
X168319046Y-99962184D01*
X168319046Y-99962184D02*
X168259523Y-100200279D01*
X168259523Y-100200279D02*
X168259523Y-100497898D01*
X168259523Y-100497898D02*
X168319046Y-100735993D01*
X168319046Y-100735993D02*
X168378570Y-100855041D01*
X168378570Y-100855041D02*
X168438094Y-100914565D01*
X168438094Y-100914565D02*
X168557142Y-100974088D01*
X168557142Y-100974088D02*
X168676189Y-100974088D01*
X168676189Y-100974088D02*
X168795237Y-100914565D01*
X168795237Y-100914565D02*
X168854761Y-100855041D01*
X168854761Y-100855041D02*
X168914284Y-100735993D01*
X168914284Y-100735993D02*
X168973808Y-100497898D01*
X168973808Y-100497898D02*
X168973808Y-100200279D01*
X168973808Y-100200279D02*
X168914284Y-99962184D01*
X168914284Y-99962184D02*
X168854761Y-99843136D01*
X168854761Y-99843136D02*
X168795237Y-99783612D01*
X168795237Y-99783612D02*
X168676189Y-99724088D01*
X167723808Y-100855041D02*
X167664285Y-100914565D01*
X167664285Y-100914565D02*
X167723808Y-100974088D01*
X167723808Y-100974088D02*
X167783332Y-100914565D01*
X167783332Y-100914565D02*
X167723808Y-100855041D01*
X167723808Y-100855041D02*
X167723808Y-100974088D01*
X166473809Y-100974088D02*
X167188094Y-100974088D01*
X166830951Y-100974088D02*
X166830951Y-99724088D01*
X166830951Y-99724088D02*
X166949999Y-99902660D01*
X166949999Y-99902660D02*
X167069047Y-100021707D01*
X167069047Y-100021707D02*
X167188094Y-100081231D01*
X160104600Y-89180953D02*
X160152219Y-89323810D01*
X160152219Y-89323810D02*
X160152219Y-89561905D01*
X160152219Y-89561905D02*
X160104600Y-89657143D01*
X160104600Y-89657143D02*
X160056980Y-89704762D01*
X160056980Y-89704762D02*
X159961742Y-89752381D01*
X159961742Y-89752381D02*
X159866504Y-89752381D01*
X159866504Y-89752381D02*
X159771266Y-89704762D01*
X159771266Y-89704762D02*
X159723647Y-89657143D01*
X159723647Y-89657143D02*
X159676028Y-89561905D01*
X159676028Y-89561905D02*
X159628409Y-89371429D01*
X159628409Y-89371429D02*
X159580790Y-89276191D01*
X159580790Y-89276191D02*
X159533171Y-89228572D01*
X159533171Y-89228572D02*
X159437933Y-89180953D01*
X159437933Y-89180953D02*
X159342695Y-89180953D01*
X159342695Y-89180953D02*
X159247457Y-89228572D01*
X159247457Y-89228572D02*
X159199838Y-89276191D01*
X159199838Y-89276191D02*
X159152219Y-89371429D01*
X159152219Y-89371429D02*
X159152219Y-89609524D01*
X159152219Y-89609524D02*
X159199838Y-89752381D01*
X159152219Y-90085715D02*
X160152219Y-90323810D01*
X160152219Y-90323810D02*
X159437933Y-90514286D01*
X159437933Y-90514286D02*
X160152219Y-90704762D01*
X160152219Y-90704762D02*
X159152219Y-90942858D01*
X160152219Y-91323810D02*
X159152219Y-91323810D01*
X159152219Y-91323810D02*
X159152219Y-91561905D01*
X159152219Y-91561905D02*
X159199838Y-91704762D01*
X159199838Y-91704762D02*
X159295076Y-91800000D01*
X159295076Y-91800000D02*
X159390314Y-91847619D01*
X159390314Y-91847619D02*
X159580790Y-91895238D01*
X159580790Y-91895238D02*
X159723647Y-91895238D01*
X159723647Y-91895238D02*
X159914123Y-91847619D01*
X159914123Y-91847619D02*
X160009361Y-91800000D01*
X160009361Y-91800000D02*
X160104600Y-91704762D01*
X160104600Y-91704762D02*
X160152219Y-91561905D01*
X160152219Y-91561905D02*
X160152219Y-91323810D01*
X160152219Y-92323810D02*
X159152219Y-92323810D01*
X159152219Y-92990476D02*
X159152219Y-93180952D01*
X159152219Y-93180952D02*
X159199838Y-93276190D01*
X159199838Y-93276190D02*
X159295076Y-93371428D01*
X159295076Y-93371428D02*
X159485552Y-93419047D01*
X159485552Y-93419047D02*
X159818885Y-93419047D01*
X159818885Y-93419047D02*
X160009361Y-93371428D01*
X160009361Y-93371428D02*
X160104600Y-93276190D01*
X160104600Y-93276190D02*
X160152219Y-93180952D01*
X160152219Y-93180952D02*
X160152219Y-92990476D01*
X160152219Y-92990476D02*
X160104600Y-92895238D01*
X160104600Y-92895238D02*
X160009361Y-92800000D01*
X160009361Y-92800000D02*
X159818885Y-92752381D01*
X159818885Y-92752381D02*
X159485552Y-92752381D01*
X159485552Y-92752381D02*
X159295076Y-92800000D01*
X159295076Y-92800000D02*
X159199838Y-92895238D01*
X159199838Y-92895238D02*
X159152219Y-92990476D01*
M02*
