%TF.GenerationSoftware,KiCad,Pcbnew,8.0.0*%
%TF.CreationDate,2024-03-15T15:48:41+01:00*%
%TF.ProjectId,STM32F103_BluePill,53544d33-3246-4313-9033-5f426c756550,rev?*%
%TF.SameCoordinates,Original*%
%TF.FileFunction,Copper,L1,Top*%
%TF.FilePolarity,Positive*%
%FSLAX46Y46*%
G04 Gerber Fmt 4.6, Leading zero omitted, Abs format (unit mm)*
G04 Created by KiCad (PCBNEW 8.0.0) date 2024-03-15 15:48:41*
%MOMM*%
%LPD*%
G01*
G04 APERTURE LIST*
G04 Aperture macros list*
%AMRoundRect*
0 Rectangle with rounded corners*
0 $1 Rounding radius*
0 $2 $3 $4 $5 $6 $7 $8 $9 X,Y pos of 4 corners*
0 Add a 4 corners polygon primitive as box body*
4,1,4,$2,$3,$4,$5,$6,$7,$8,$9,$2,$3,0*
0 Add four circle primitives for the rounded corners*
1,1,$1+$1,$2,$3*
1,1,$1+$1,$4,$5*
1,1,$1+$1,$6,$7*
1,1,$1+$1,$8,$9*
0 Add four rect primitives between the rounded corners*
20,1,$1+$1,$2,$3,$4,$5,0*
20,1,$1+$1,$4,$5,$6,$7,0*
20,1,$1+$1,$6,$7,$8,$9,0*
20,1,$1+$1,$8,$9,$2,$3,0*%
G04 Aperture macros list end*
%TA.AperFunction,SMDPad,CuDef*%
%ADD10RoundRect,0.225000X-0.225000X-0.250000X0.225000X-0.250000X0.225000X0.250000X-0.225000X0.250000X0*%
%TD*%
%TA.AperFunction,SMDPad,CuDef*%
%ADD11R,1.300000X0.450000*%
%TD*%
%TA.AperFunction,ComponentPad*%
%ADD12O,1.800000X1.150000*%
%TD*%
%TA.AperFunction,ComponentPad*%
%ADD13O,2.000000X1.450000*%
%TD*%
%TA.AperFunction,SMDPad,CuDef*%
%ADD14RoundRect,0.140000X-0.140000X-0.170000X0.140000X-0.170000X0.140000X0.170000X-0.140000X0.170000X0*%
%TD*%
%TA.AperFunction,SMDPad,CuDef*%
%ADD15RoundRect,0.140000X-0.170000X0.140000X-0.170000X-0.140000X0.170000X-0.140000X0.170000X0.140000X0*%
%TD*%
%TA.AperFunction,SMDPad,CuDef*%
%ADD16RoundRect,0.135000X0.185000X-0.135000X0.185000X0.135000X-0.185000X0.135000X-0.185000X-0.135000X0*%
%TD*%
%TA.AperFunction,SMDPad,CuDef*%
%ADD17RoundRect,0.140000X0.170000X-0.140000X0.170000X0.140000X-0.170000X0.140000X-0.170000X-0.140000X0*%
%TD*%
%TA.AperFunction,SMDPad,CuDef*%
%ADD18RoundRect,0.250000X-0.250000X-0.475000X0.250000X-0.475000X0.250000X0.475000X-0.250000X0.475000X0*%
%TD*%
%TA.AperFunction,SMDPad,CuDef*%
%ADD19RoundRect,0.140000X0.140000X0.170000X-0.140000X0.170000X-0.140000X-0.170000X0.140000X-0.170000X0*%
%TD*%
%TA.AperFunction,ComponentPad*%
%ADD20R,1.700000X1.700000*%
%TD*%
%TA.AperFunction,ComponentPad*%
%ADD21O,1.700000X1.700000*%
%TD*%
%TA.AperFunction,SMDPad,CuDef*%
%ADD22RoundRect,0.075000X-0.662500X-0.075000X0.662500X-0.075000X0.662500X0.075000X-0.662500X0.075000X0*%
%TD*%
%TA.AperFunction,SMDPad,CuDef*%
%ADD23RoundRect,0.075000X-0.075000X-0.662500X0.075000X-0.662500X0.075000X0.662500X-0.075000X0.662500X0*%
%TD*%
%TA.AperFunction,SMDPad,CuDef*%
%ADD24RoundRect,0.250000X0.475000X-0.250000X0.475000X0.250000X-0.475000X0.250000X-0.475000X-0.250000X0*%
%TD*%
%TA.AperFunction,SMDPad,CuDef*%
%ADD25R,1.200000X1.400000*%
%TD*%
%TA.AperFunction,SMDPad,CuDef*%
%ADD26RoundRect,0.218750X-0.256250X0.218750X-0.256250X-0.218750X0.256250X-0.218750X0.256250X0.218750X0*%
%TD*%
%TA.AperFunction,SMDPad,CuDef*%
%ADD27RoundRect,0.375000X-0.375000X0.625000X-0.375000X-0.625000X0.375000X-0.625000X0.375000X0.625000X0*%
%TD*%
%TA.AperFunction,SMDPad,CuDef*%
%ADD28RoundRect,0.500000X-1.400000X0.500000X-1.400000X-0.500000X1.400000X-0.500000X1.400000X0.500000X0*%
%TD*%
%TA.AperFunction,SMDPad,CuDef*%
%ADD29R,0.800000X1.000000*%
%TD*%
%TA.AperFunction,SMDPad,CuDef*%
%ADD30R,1.500000X0.700000*%
%TD*%
%TA.AperFunction,SMDPad,CuDef*%
%ADD31RoundRect,0.135000X0.135000X0.185000X-0.135000X0.185000X-0.135000X-0.185000X0.135000X-0.185000X0*%
%TD*%
%TA.AperFunction,SMDPad,CuDef*%
%ADD32RoundRect,0.135000X-0.135000X-0.185000X0.135000X-0.185000X0.135000X0.185000X-0.135000X0.185000X0*%
%TD*%
%TA.AperFunction,SMDPad,CuDef*%
%ADD33RoundRect,0.135000X-0.185000X0.135000X-0.185000X-0.135000X0.185000X-0.135000X0.185000X0.135000X0*%
%TD*%
%TA.AperFunction,ViaPad*%
%ADD34C,0.700000*%
%TD*%
%TA.AperFunction,Conductor*%
%ADD35C,0.300000*%
%TD*%
%TA.AperFunction,Conductor*%
%ADD36C,0.500000*%
%TD*%
%TA.AperFunction,Conductor*%
%ADD37C,0.200000*%
%TD*%
G04 APERTURE END LIST*
D10*
%TO.P,C3,1*%
%TO.N,+3.3V*%
X146725000Y-92500000D03*
%TO.P,C3,2*%
%TO.N,GND*%
X148275000Y-92500000D03*
%TD*%
D11*
%TO.P,J3,1,VBUS*%
%TO.N,VBUS*%
X165845000Y-100300000D03*
%TO.P,J3,2,D-*%
%TO.N,/USB_D-*%
X165845000Y-99650000D03*
%TO.P,J3,3,D+*%
%TO.N,/USB_D+*%
X165845000Y-99000000D03*
%TO.P,J3,4,ID*%
%TO.N,unconnected-(J3-ID-Pad4)*%
X165845000Y-98350000D03*
%TO.P,J3,5,GND*%
%TO.N,GND*%
X165845000Y-97700000D03*
D12*
%TO.P,J3,6,Shield*%
%TO.N,unconnected-(J3-Shield-Pad6)_2*%
X169695000Y-102875000D03*
D13*
%TO.N,unconnected-(J3-Shield-Pad6)*%
X165895000Y-102725000D03*
%TO.N,unconnected-(J3-Shield-Pad6)_0*%
X165895000Y-95275000D03*
D12*
%TO.N,unconnected-(J3-Shield-Pad6)_1*%
X169695000Y-95125000D03*
%TD*%
D14*
%TO.P,C4,1*%
%TO.N,/NRST*%
X146790000Y-106250000D03*
%TO.P,C4,2*%
%TO.N,GND*%
X147750000Y-106250000D03*
%TD*%
D15*
%TO.P,C9,1*%
%TO.N,+3.3V*%
X156000000Y-97270000D03*
%TO.P,C9,2*%
%TO.N,GND*%
X156000000Y-98230000D03*
%TD*%
D16*
%TO.P,R4,1*%
%TO.N,/SW_BOOT0*%
X136600000Y-93910000D03*
%TO.P,R4,2*%
%TO.N,/BOOT0*%
X136600000Y-92890000D03*
%TD*%
D17*
%TO.P,C5,1*%
%TO.N,/HSE_IN*%
X140875000Y-98550000D03*
%TO.P,C5,2*%
%TO.N,GND*%
X140875000Y-97590000D03*
%TD*%
%TO.P,C11,1*%
%TO.N,+3.3VA*%
X144020000Y-101730000D03*
%TO.P,C11,2*%
%TO.N,GND*%
X144020000Y-100770000D03*
%TD*%
D18*
%TO.P,C1,1*%
%TO.N,VBUS*%
X158487500Y-102237500D03*
%TO.P,C1,2*%
%TO.N,GND*%
X160387500Y-102237500D03*
%TD*%
D19*
%TO.P,C12,1*%
%TO.N,+3.3VA*%
X143980000Y-104750000D03*
%TO.P,C12,2*%
%TO.N,GND*%
X143020000Y-104750000D03*
%TD*%
D20*
%TO.P,J4,1,Pin_1*%
%TO.N,+3.3V*%
X162300000Y-87000000D03*
D21*
%TO.P,J4,2,Pin_2*%
%TO.N,/SWDIO*%
X159760000Y-87000000D03*
%TO.P,J4,3,Pin_3*%
%TO.N,/SWCLK*%
X157220000Y-87000000D03*
%TO.P,J4,4,Pin_4*%
%TO.N,GND*%
X154680000Y-87000000D03*
%TD*%
D17*
%TO.P,C6,1*%
%TO.N,+3.3V*%
X144000000Y-97480000D03*
%TO.P,C6,2*%
%TO.N,GND*%
X144000000Y-96520000D03*
%TD*%
D22*
%TO.P,U2,1,VBAT*%
%TO.N,+3.3V*%
X145837500Y-97500000D03*
%TO.P,U2,2,PC13*%
%TO.N,unconnected-(U2-PC13-Pad2)*%
X145837500Y-98000000D03*
%TO.P,U2,3,PC14*%
%TO.N,unconnected-(U2-PC14-Pad3)*%
X145837500Y-98500000D03*
%TO.P,U2,4,PC15*%
%TO.N,unconnected-(U2-PC15-Pad4)*%
X145837500Y-99000000D03*
%TO.P,U2,5,PD0*%
%TO.N,/HSE_IN*%
X145837500Y-99500000D03*
%TO.P,U2,6,PD1*%
%TO.N,/HSE_OUT*%
X145837500Y-100000000D03*
%TO.P,U2,7,NRST*%
%TO.N,/NRST*%
X145837500Y-100500000D03*
%TO.P,U2,8,VSSA*%
%TO.N,GND*%
X145837500Y-101000000D03*
%TO.P,U2,9,VDDA*%
%TO.N,+3.3VA*%
X145837500Y-101500000D03*
%TO.P,U2,10,PA0*%
%TO.N,unconnected-(U2-PA0-Pad10)*%
X145837500Y-102000000D03*
%TO.P,U2,11,PA1*%
%TO.N,unconnected-(U2-PA1-Pad11)*%
X145837500Y-102500000D03*
%TO.P,U2,12,PA2*%
%TO.N,unconnected-(U2-PA2-Pad12)*%
X145837500Y-103000000D03*
D23*
%TO.P,U2,13,PA3*%
%TO.N,unconnected-(U2-PA3-Pad13)*%
X147250000Y-104412500D03*
%TO.P,U2,14,PA4*%
%TO.N,unconnected-(U2-PA4-Pad14)*%
X147750000Y-104412500D03*
%TO.P,U2,15,PA5*%
%TO.N,unconnected-(U2-PA5-Pad15)*%
X148250000Y-104412500D03*
%TO.P,U2,16,PA6*%
%TO.N,unconnected-(U2-PA6-Pad16)*%
X148750000Y-104412500D03*
%TO.P,U2,17,PA7*%
%TO.N,unconnected-(U2-PA7-Pad17)*%
X149250000Y-104412500D03*
%TO.P,U2,18,PB0*%
%TO.N,unconnected-(U2-PB0-Pad18)*%
X149750000Y-104412500D03*
%TO.P,U2,19,PB1*%
%TO.N,unconnected-(U2-PB1-Pad19)*%
X150250000Y-104412500D03*
%TO.P,U2,20,PB2*%
%TO.N,unconnected-(U2-PB2-Pad20)*%
X150750000Y-104412500D03*
%TO.P,U2,21,PB10*%
%TO.N,/I2C2_SCL*%
X151250000Y-104412500D03*
%TO.P,U2,22,PB11*%
%TO.N,/I2C2_SDA*%
X151750000Y-104412500D03*
%TO.P,U2,23,VSS*%
%TO.N,GND*%
X152250000Y-104412500D03*
%TO.P,U2,24,VDD*%
%TO.N,+3.3V*%
X152750000Y-104412500D03*
D22*
%TO.P,U2,25,PB12*%
%TO.N,unconnected-(U2-PB12-Pad25)*%
X154162500Y-103000000D03*
%TO.P,U2,26,PB13*%
%TO.N,unconnected-(U2-PB13-Pad26)*%
X154162500Y-102500000D03*
%TO.P,U2,27,PB14*%
%TO.N,unconnected-(U2-PB14-Pad27)*%
X154162500Y-102000000D03*
%TO.P,U2,28,PB15*%
%TO.N,unconnected-(U2-PB15-Pad28)*%
X154162500Y-101500000D03*
%TO.P,U2,29,PA8*%
%TO.N,unconnected-(U2-PA8-Pad29)*%
X154162500Y-101000000D03*
%TO.P,U2,30,PA9*%
%TO.N,unconnected-(U2-PA9-Pad30)*%
X154162500Y-100500000D03*
%TO.P,U2,31,PA10*%
%TO.N,unconnected-(U2-PA10-Pad31)*%
X154162500Y-100000000D03*
%TO.P,U2,32,PA11*%
%TO.N,/USB_D-*%
X154162500Y-99500000D03*
%TO.P,U2,33,PA12*%
%TO.N,/USB_D+*%
X154162500Y-99000000D03*
%TO.P,U2,34,PA13*%
%TO.N,/SWDIO*%
X154162500Y-98500000D03*
%TO.P,U2,35,VSS*%
%TO.N,GND*%
X154162500Y-98000000D03*
%TO.P,U2,36,VDD*%
%TO.N,+3.3V*%
X154162500Y-97500000D03*
D23*
%TO.P,U2,37,PA14*%
%TO.N,/SWCLK*%
X152750000Y-96087500D03*
%TO.P,U2,38,PA15*%
%TO.N,unconnected-(U2-PA15-Pad38)*%
X152250000Y-96087500D03*
%TO.P,U2,39,PB3*%
%TO.N,unconnected-(U2-PB3-Pad39)*%
X151750000Y-96087500D03*
%TO.P,U2,40,PB4*%
%TO.N,unconnected-(U2-PB4-Pad40)*%
X151250000Y-96087500D03*
%TO.P,U2,41,PB5*%
%TO.N,unconnected-(U2-PB5-Pad41)*%
X150750000Y-96087500D03*
%TO.P,U2,42,PB6*%
%TO.N,/UART1_TX*%
X150250000Y-96087500D03*
%TO.P,U2,43,PB7*%
%TO.N,/UART1_RX*%
X149750000Y-96087500D03*
%TO.P,U2,44,BOOT0*%
%TO.N,/BOOT0*%
X149250000Y-96087500D03*
%TO.P,U2,45,PB8*%
%TO.N,unconnected-(U2-PB8-Pad45)*%
X148750000Y-96087500D03*
%TO.P,U2,46,PB9*%
%TO.N,unconnected-(U2-PB9-Pad46)*%
X148250000Y-96087500D03*
%TO.P,U2,47,VSS*%
%TO.N,GND*%
X147750000Y-96087500D03*
%TO.P,U2,48,VDD*%
%TO.N,+3.3V*%
X147250000Y-96087500D03*
%TD*%
D19*
%TO.P,C13,1*%
%TO.N,+3.3V*%
X143980000Y-106250000D03*
%TO.P,C13,2*%
%TO.N,GND*%
X143020000Y-106250000D03*
%TD*%
D24*
%TO.P,C2,1*%
%TO.N,+3.3V*%
X163937500Y-108687500D03*
%TO.P,C2,2*%
%TO.N,GND*%
X163937500Y-106787500D03*
%TD*%
D25*
%TO.P,Y1,1,1*%
%TO.N,/HSE_IN*%
X137425000Y-97850000D03*
%TO.P,Y1,2,2*%
%TO.N,GND*%
X137425000Y-100050000D03*
%TO.P,Y1,3,3*%
%TO.N,/HSE_OUT*%
X139125000Y-100050000D03*
%TO.P,Y1,4,4*%
%TO.N,GND*%
X139125000Y-97850000D03*
%TD*%
D26*
%TO.P,FB1,1*%
%TO.N,+3.3VA*%
X145250000Y-104712500D03*
%TO.P,FB1,2*%
%TO.N,+3.3V*%
X145250000Y-106287500D03*
%TD*%
D27*
%TO.P,U1,1,GND*%
%TO.N,GND*%
X161550000Y-104600000D03*
%TO.P,U1,2,VO*%
%TO.N,+3.3V*%
X159250000Y-104600000D03*
D28*
X159250000Y-110900000D03*
D27*
%TO.P,U1,3,VI*%
%TO.N,VBUS*%
X156950000Y-104600000D03*
%TD*%
D29*
%TO.P,SW1,*%
%TO.N,*%
X134005000Y-91350000D03*
X131795000Y-91350000D03*
X134005000Y-98650000D03*
X131795000Y-98650000D03*
D30*
%TO.P,SW1,1,A*%
%TO.N,GND*%
X134655000Y-92750000D03*
%TO.P,SW1,2,B*%
%TO.N,/SW_BOOT0*%
X134655000Y-95750000D03*
%TO.P,SW1,3,C*%
%TO.N,+3.3V*%
X134655000Y-97250000D03*
%TD*%
D31*
%TO.P,R2,1*%
%TO.N,+3.3V*%
X148780000Y-109860000D03*
%TO.P,R2,2*%
%TO.N,/I2C2_SCL*%
X147760000Y-109860000D03*
%TD*%
D17*
%TO.P,C7,1*%
%TO.N,/HSE_OUT*%
X140875000Y-100550000D03*
%TO.P,C7,2*%
%TO.N,GND*%
X140875000Y-99590000D03*
%TD*%
D32*
%TO.P,R3,1*%
%TO.N,+3.3V*%
X150010000Y-109860000D03*
%TO.P,R3,2*%
%TO.N,/I2C2_SDA*%
X151030000Y-109860000D03*
%TD*%
D20*
%TO.P,J2,1,Pin_1*%
%TO.N,+3.3V*%
X145200000Y-113500000D03*
D21*
%TO.P,J2,2,Pin_2*%
%TO.N,/I2C2_SCL*%
X147740000Y-113500000D03*
%TO.P,J2,3,Pin_3*%
%TO.N,/I2C2_SDA*%
X150280000Y-113500000D03*
%TO.P,J2,4,Pin_4*%
%TO.N,GND*%
X152820000Y-113500000D03*
%TD*%
D14*
%TO.P,C10,1*%
%TO.N,+3.3V*%
X147020000Y-94250000D03*
%TO.P,C10,2*%
%TO.N,GND*%
X147980000Y-94250000D03*
%TD*%
D19*
%TO.P,C8,1*%
%TO.N,+3.3V*%
X153260000Y-106270000D03*
%TO.P,C8,2*%
%TO.N,GND*%
X152300000Y-106270000D03*
%TD*%
D20*
%TO.P,J1,1,Pin_1*%
%TO.N,+3.3V*%
X147550000Y-87000000D03*
D21*
%TO.P,J1,2,Pin_2*%
%TO.N,/UART1_TX*%
X145010000Y-87000000D03*
%TO.P,J1,3,Pin_3*%
%TO.N,/UART1_RX*%
X142470000Y-87000000D03*
%TO.P,J1,4,Pin_4*%
%TO.N,GND*%
X139930000Y-87000000D03*
%TD*%
D26*
%TO.P,D1,1,K*%
%TO.N,/PWR_LED_K*%
X166700000Y-107012500D03*
%TO.P,D1,2,A*%
%TO.N,+3.3V*%
X166700000Y-108587500D03*
%TD*%
D32*
%TO.P,R1,1*%
%TO.N,/PWR_LED_K*%
X166790000Y-105400000D03*
%TO.P,R1,2*%
%TO.N,GND*%
X167810000Y-105400000D03*
%TD*%
D33*
%TO.P,R5,1*%
%TO.N,+3.3V*%
X159620000Y-97830000D03*
%TO.P,R5,2*%
%TO.N,/USB_D+*%
X159620000Y-98850000D03*
%TD*%
D34*
%TO.N,GND*%
X144000000Y-95440000D03*
X140900000Y-96730000D03*
X135680000Y-91840000D03*
X161670000Y-102680000D03*
X143020000Y-103980000D03*
X168600000Y-105400000D03*
X139100000Y-96300000D03*
X152250000Y-102870000D03*
X148635025Y-105895025D03*
X161690000Y-101740000D03*
X147760000Y-97600000D03*
X143030000Y-107310000D03*
X147340000Y-101200000D03*
X137400000Y-101500000D03*
X164410000Y-97700000D03*
X162000000Y-106100000D03*
X157040000Y-98350000D03*
X161200000Y-106100000D03*
X165200000Y-106800000D03*
X141920000Y-99570000D03*
%TO.N,+3.3V*%
X146800000Y-111000000D03*
X151900000Y-108400000D03*
X168000000Y-104400000D03*
X168600000Y-106600000D03*
X148800000Y-111000000D03*
X150000000Y-108400000D03*
%TD*%
D35*
%TO.N,+3.3V*%
X145200000Y-111000000D02*
X146800000Y-111000000D01*
X151900000Y-108400000D02*
X154800000Y-108400000D01*
X150010000Y-108410000D02*
X150000000Y-108400000D01*
X150010000Y-109860000D02*
X150010000Y-108410000D01*
X148780000Y-110980000D02*
X148800000Y-111000000D01*
X148780000Y-109860000D02*
X148780000Y-110980000D01*
%TO.N,GND*%
X147980000Y-93770000D02*
X148275000Y-93475000D01*
D36*
X139125000Y-97850000D02*
X139125000Y-96325000D01*
D35*
X147750000Y-96087500D02*
X147750000Y-95246880D01*
X165845000Y-97700000D02*
X164410000Y-97700000D01*
D36*
X147750000Y-106250000D02*
X148280050Y-106250000D01*
X143020000Y-107300000D02*
X143030000Y-107310000D01*
D35*
X147980000Y-94980000D02*
X147980000Y-94250000D01*
X152250000Y-104412500D02*
X152250000Y-106220000D01*
X155003120Y-98000000D02*
X155250000Y-98246880D01*
D36*
X141900000Y-99590000D02*
X141920000Y-99570000D01*
X140875000Y-96755000D02*
X140900000Y-96730000D01*
D35*
X147750000Y-96087500D02*
X147750000Y-97590000D01*
X147750000Y-97590000D02*
X147760000Y-97600000D01*
X147750000Y-95246880D02*
X147996880Y-95000000D01*
X156920000Y-98230000D02*
X157040000Y-98350000D01*
D36*
X135750000Y-91910000D02*
X135680000Y-91840000D01*
X140875000Y-99590000D02*
X141900000Y-99590000D01*
D35*
X144480000Y-100770000D02*
X144020000Y-100770000D01*
D36*
X167810000Y-105400000D02*
X168600000Y-105400000D01*
D35*
X156000000Y-98230000D02*
X156920000Y-98230000D01*
X148275000Y-93475000D02*
X148275000Y-92500000D01*
X147980000Y-94250000D02*
X147980000Y-93770000D01*
D36*
X140875000Y-97590000D02*
X140875000Y-96755000D01*
D35*
X145837500Y-101000000D02*
X147140000Y-101000000D01*
D36*
X139125000Y-96325000D02*
X139100000Y-96300000D01*
X143020000Y-104750000D02*
X143020000Y-103980000D01*
D35*
X155250000Y-98246880D02*
X155250000Y-98250000D01*
X145837500Y-101000000D02*
X144750000Y-101000000D01*
X154162500Y-98000000D02*
X155003120Y-98000000D01*
X155270000Y-98230000D02*
X156000000Y-98230000D01*
D36*
X144000000Y-96520000D02*
X144000000Y-95440000D01*
D35*
X152250000Y-106220000D02*
X152300000Y-106270000D01*
X147996880Y-95000000D02*
X148000000Y-95000000D01*
D36*
X148280050Y-106250000D02*
X148635025Y-105895025D01*
D35*
X155250000Y-98250000D02*
X155270000Y-98230000D01*
X144750000Y-101000000D02*
X144500000Y-100750000D01*
D36*
X137425000Y-100050000D02*
X137425000Y-101475000D01*
D35*
X148000000Y-95000000D02*
X147980000Y-94980000D01*
D36*
X143020000Y-106250000D02*
X143020000Y-107300000D01*
X134655000Y-92750000D02*
X135750000Y-92750000D01*
D35*
X147140000Y-101000000D02*
X147340000Y-101200000D01*
D36*
X137425000Y-101475000D02*
X137400000Y-101500000D01*
X135750000Y-92750000D02*
X135750000Y-91910000D01*
D35*
X144500000Y-100750000D02*
X144480000Y-100770000D01*
X152250000Y-104412500D02*
X152250000Y-102870000D01*
%TO.N,+3.3V*%
X147000000Y-95000000D02*
X147020000Y-94980000D01*
X154800000Y-107800000D02*
X154800000Y-108400000D01*
X145200000Y-111000000D02*
X138000000Y-111000000D01*
X154800000Y-112300000D02*
X156700000Y-114200000D01*
X153260000Y-105730000D02*
X153260000Y-106270000D01*
X145837500Y-97500000D02*
X145837500Y-95137500D01*
X155520000Y-97270000D02*
X156000000Y-97270000D01*
X147020000Y-94250000D02*
X147020000Y-93770000D01*
X166050000Y-91950000D02*
X162300000Y-88200000D01*
X147020000Y-94980000D02*
X147020000Y-94250000D01*
X150010000Y-109860000D02*
X148780000Y-109860000D01*
X144020000Y-97500000D02*
X144000000Y-97480000D01*
X150000000Y-108500000D02*
X150010000Y-108510000D01*
X168000000Y-104400000D02*
X168000000Y-93900000D01*
X156000000Y-97270000D02*
X157970000Y-97270000D01*
X145250000Y-110950000D02*
X145250000Y-106287500D01*
X165400000Y-110200000D02*
X165400000Y-108787500D01*
X157970000Y-97270000D02*
X158530000Y-97830000D01*
D36*
X166600000Y-108687500D02*
X166700000Y-108587500D01*
X165500000Y-108687500D02*
X166600000Y-108687500D01*
D35*
X160170000Y-97830000D02*
X166050000Y-91950000D01*
D36*
X163937500Y-108687500D02*
X165500000Y-108687500D01*
D35*
X162300000Y-87000000D02*
X162300000Y-86500000D01*
X154800000Y-108400000D02*
X154800000Y-112300000D01*
X147250000Y-96087500D02*
X147250000Y-95250000D01*
X145837500Y-97500000D02*
X144020000Y-97500000D01*
X155250000Y-97500000D02*
X155500000Y-97250000D01*
X167100000Y-110200000D02*
X167400000Y-110200000D01*
X168600000Y-109000000D02*
X168600000Y-106600000D01*
X168200000Y-109400000D02*
X168600000Y-109000000D01*
X168000000Y-93900000D02*
X166050000Y-91950000D01*
X145200000Y-111000000D02*
X145250000Y-110950000D01*
X158530000Y-97830000D02*
X159620000Y-97830000D01*
X147250000Y-95250000D02*
X147000000Y-95000000D01*
X146725000Y-93475000D02*
X146725000Y-92500000D01*
X165400000Y-108787500D02*
X165500000Y-108687500D01*
X161200000Y-85400000D02*
X148700000Y-85400000D01*
X147550000Y-86550000D02*
X147550000Y-87000000D01*
D36*
X145212500Y-106250000D02*
X145250000Y-106287500D01*
D35*
X138000000Y-111000000D02*
X136100000Y-109100000D01*
D36*
X145200000Y-113500000D02*
X145200000Y-111000000D01*
D35*
X165400000Y-110200000D02*
X167100000Y-110200000D01*
X163600000Y-114200000D02*
X165400000Y-112400000D01*
X156700000Y-114200000D02*
X163600000Y-114200000D01*
X145837500Y-95137500D02*
X145000000Y-94300000D01*
X148700000Y-85400000D02*
X147550000Y-86550000D01*
X165400000Y-112400000D02*
X165400000Y-110200000D01*
X152750000Y-105220000D02*
X153260000Y-105730000D01*
X136100000Y-109100000D02*
X136100000Y-96400000D01*
X153270000Y-106270000D02*
X154800000Y-107800000D01*
X155500000Y-97250000D02*
X155520000Y-97270000D01*
X154162500Y-97500000D02*
X155250000Y-97500000D01*
X136100000Y-96400000D02*
X140000000Y-92500000D01*
X140000000Y-92500000D02*
X145000000Y-92500000D01*
X145000000Y-92500000D02*
X146725000Y-92500000D01*
X153260000Y-106270000D02*
X153270000Y-106270000D01*
D36*
X143980000Y-106250000D02*
X145212500Y-106250000D01*
D35*
X145000000Y-94300000D02*
X145000000Y-92500000D01*
X159620000Y-97830000D02*
X160170000Y-97830000D01*
X167400000Y-110200000D02*
X168200000Y-109400000D01*
X147020000Y-93770000D02*
X146725000Y-93475000D01*
D36*
X134655000Y-97250000D02*
X136050000Y-97250000D01*
D35*
X162300000Y-86500000D02*
X161200000Y-85400000D01*
X150100000Y-108400000D02*
X150000000Y-108500000D01*
X162300000Y-88200000D02*
X162300000Y-87000000D01*
X152750000Y-104412500D02*
X152750000Y-105220000D01*
%TO.N,/NRST*%
X148080000Y-102098120D02*
X146370000Y-103808120D01*
X145837500Y-100500000D02*
X147629950Y-100500000D01*
X146370000Y-103808120D02*
X146370000Y-105830000D01*
X148080000Y-100950050D02*
X148080000Y-102098120D01*
X147629950Y-100500000D02*
X148080000Y-100950050D01*
X146370000Y-105830000D02*
X146790000Y-106250000D01*
%TO.N,/HSE_IN*%
X140775000Y-98550000D02*
X140325000Y-99000000D01*
X144750000Y-99500000D02*
X143800000Y-98550000D01*
X145837500Y-99500000D02*
X144750000Y-99500000D01*
X138250000Y-99000000D02*
X137425000Y-98175000D01*
X140325000Y-99000000D02*
X138250000Y-99000000D01*
X143800000Y-98550000D02*
X140875000Y-98550000D01*
X140875000Y-98550000D02*
X140775000Y-98550000D01*
X137425000Y-98175000D02*
X137425000Y-97850000D01*
%TO.N,/HSE_OUT*%
X145837500Y-100000000D02*
X143000000Y-100000000D01*
X140875000Y-100550000D02*
X140525000Y-100550000D01*
X140025000Y-100050000D02*
X139125000Y-100050000D01*
X142450000Y-100550000D02*
X140875000Y-100550000D01*
X143000000Y-100000000D02*
X142450000Y-100550000D01*
X140525000Y-100550000D02*
X140025000Y-100050000D01*
%TO.N,+3.3VA*%
X144520000Y-101730000D02*
X144750000Y-101500000D01*
X144020000Y-101730000D02*
X144520000Y-101730000D01*
D36*
X145212500Y-104750000D02*
X145250000Y-104712500D01*
X143980000Y-104750000D02*
X143980000Y-101770000D01*
D35*
X144750000Y-101500000D02*
X145837500Y-101500000D01*
D36*
X143980000Y-101770000D02*
X144020000Y-101730000D01*
X143980000Y-104750000D02*
X145212500Y-104750000D01*
%TO.N,/PWR_LED_K*%
X166700000Y-107012500D02*
X166700000Y-105490000D01*
X166700000Y-105490000D02*
X166790000Y-105400000D01*
D35*
%TO.N,/UART1_TX*%
X150250000Y-95240000D02*
X151490000Y-94000000D01*
X145770000Y-88710000D02*
X145010000Y-87950000D01*
X151490000Y-89570000D02*
X150630000Y-88710000D01*
X150630000Y-88710000D02*
X145770000Y-88710000D01*
X145010000Y-87950000D02*
X145010000Y-87000000D01*
X151490000Y-94000000D02*
X151490000Y-89570000D01*
X150250000Y-96087500D02*
X150250000Y-95240000D01*
%TO.N,/UART1_RX*%
X149750000Y-96087500D02*
X149750000Y-94060000D01*
X149750000Y-94060000D02*
X150420000Y-93390000D01*
X150420000Y-90230000D02*
X149840000Y-89650000D01*
X149840000Y-89640000D02*
X143690000Y-89640000D01*
X149840000Y-89650000D02*
X149840000Y-89640000D01*
X142470000Y-88400000D02*
X142470000Y-87000000D01*
X150420000Y-93390000D02*
X150420000Y-90230000D01*
X142460000Y-88410000D02*
X142470000Y-88400000D01*
X143690000Y-89640000D02*
X142460000Y-88410000D01*
%TO.N,/I2C2_SCL*%
X147760000Y-109860000D02*
X147760000Y-113480000D01*
X147810000Y-107710000D02*
X147800000Y-107710000D01*
X151250000Y-105253120D02*
X150753120Y-105750000D01*
X151250000Y-104412500D02*
X151250000Y-105253120D01*
X147800000Y-107710000D02*
X147760000Y-107750000D01*
X147760000Y-113480000D02*
X147740000Y-113500000D01*
X147760000Y-107750000D02*
X147760000Y-109860000D01*
X150753120Y-105750000D02*
X149770000Y-105750000D01*
X149770000Y-105750000D02*
X147810000Y-107710000D01*
%TO.N,/I2C2_SDA*%
X151750000Y-105813154D02*
X151030000Y-106533154D01*
X151750000Y-104412500D02*
X151750000Y-105813154D01*
X150280000Y-112290000D02*
X150280000Y-113500000D01*
X151030000Y-106533154D02*
X151030000Y-109860000D01*
X150260000Y-112270000D02*
X150280000Y-112290000D01*
X151030000Y-109860000D02*
X151030000Y-111500000D01*
X151030000Y-111500000D02*
X150260000Y-112270000D01*
D37*
%TO.N,/USB_D+*%
X154162500Y-99000000D02*
X165845000Y-99000000D01*
%TO.N,/USB_D-*%
X164895000Y-99525000D02*
X165720000Y-99525000D01*
X154162500Y-99500000D02*
X154212499Y-99450001D01*
X165720000Y-99525000D02*
X165845000Y-99650000D01*
X154212499Y-99450001D02*
X164895000Y-99450001D01*
X164895000Y-99450001D02*
X164895000Y-99525000D01*
D35*
%TO.N,/SWDIO*%
X159760000Y-90490000D02*
X159760000Y-87000000D01*
X153321880Y-98500000D02*
X153075000Y-98253120D01*
X153075000Y-98253120D02*
X153075000Y-97175000D01*
X154162500Y-98500000D02*
X153321880Y-98500000D01*
X153075000Y-97175000D02*
X159760000Y-90490000D01*
%TO.N,/SWCLK*%
X152750000Y-94030000D02*
X157220000Y-89560000D01*
X152750000Y-96087500D02*
X152750000Y-94030000D01*
X157220000Y-89560000D02*
X157220000Y-87000000D01*
%TO.N,/BOOT0*%
X149310000Y-91400000D02*
X148850000Y-90940000D01*
X149250000Y-95030000D02*
X148930000Y-94710000D01*
X148850000Y-90940000D02*
X137680000Y-90940000D01*
X148930000Y-93680000D02*
X149310000Y-93300000D01*
X136600000Y-92890000D02*
X136600000Y-92020000D01*
X137680000Y-90940000D02*
X136600000Y-92020000D01*
X149310000Y-93300000D02*
X149310000Y-91400000D01*
X148930000Y-94710000D02*
X148930000Y-93680000D01*
X149250000Y-96087500D02*
X149250000Y-95030000D01*
%TO.N,/SW_BOOT0*%
X136300000Y-94800000D02*
X135100000Y-94800000D01*
X135100000Y-94800000D02*
X134655000Y-95245000D01*
X134665000Y-95740000D02*
X134655000Y-95750000D01*
X134655000Y-95245000D02*
X134655000Y-95750000D01*
X136600000Y-94500000D02*
X136300000Y-94800000D01*
X136600000Y-93910000D02*
X136600000Y-94500000D01*
%TD*%
%TA.AperFunction,Conductor*%
%TO.N,GND*%
G36*
X162028591Y-101216337D02*
G01*
X162639400Y-101565371D01*
X162687840Y-101615723D01*
X162701836Y-101669771D01*
X162799999Y-105399998D01*
X162800000Y-105400001D01*
X163200000Y-106000000D01*
X165248638Y-106000000D01*
X165315677Y-106019685D01*
X165336319Y-106036319D01*
X165563681Y-106263681D01*
X165597166Y-106325004D01*
X165600000Y-106351362D01*
X165600000Y-107233637D01*
X165580315Y-107300676D01*
X165544783Y-107336811D01*
X165331239Y-107479174D01*
X165264540Y-107499982D01*
X165262456Y-107500000D01*
X161062000Y-107500000D01*
X160994961Y-107480315D01*
X160962800Y-107450400D01*
X160724800Y-107133066D01*
X160700324Y-107067624D01*
X160700000Y-107058666D01*
X160700000Y-103499999D01*
X160500000Y-103200000D01*
X159995760Y-103200000D01*
X159978113Y-103198738D01*
X159966714Y-103197099D01*
X159948638Y-103194500D01*
X159948637Y-103194500D01*
X159944255Y-103193870D01*
X159944418Y-103192729D01*
X159883825Y-103170122D01*
X159858947Y-103145263D01*
X159624800Y-102833066D01*
X159600324Y-102767624D01*
X159600000Y-102758666D01*
X159600000Y-101666362D01*
X159619685Y-101599323D01*
X159655215Y-101563189D01*
X160168761Y-101220826D01*
X160235461Y-101200018D01*
X160237544Y-101200000D01*
X161967071Y-101200000D01*
X162028591Y-101216337D01*
G37*
%TD.AperFunction*%
%TD*%
%TA.AperFunction,Conductor*%
%TO.N,VBUS*%
G36*
X165011160Y-100119685D02*
G01*
X165014196Y-100121699D01*
X165022231Y-100127202D01*
X165022235Y-100127206D01*
X165125009Y-100172585D01*
X165150135Y-100175500D01*
X166539864Y-100175499D01*
X166539879Y-100175497D01*
X166539882Y-100175497D01*
X166564987Y-100172586D01*
X166564988Y-100172585D01*
X166564991Y-100172585D01*
X166667765Y-100127206D01*
X166667769Y-100127201D01*
X166675804Y-100121699D01*
X166742236Y-100100054D01*
X166745879Y-100100000D01*
X166876000Y-100100000D01*
X166943039Y-100119685D01*
X166988794Y-100172489D01*
X167000000Y-100224000D01*
X167000000Y-100248638D01*
X166980315Y-100315677D01*
X166963681Y-100336319D01*
X166836319Y-100463681D01*
X166774996Y-100497166D01*
X166748638Y-100500000D01*
X159899999Y-100500000D01*
X159200000Y-101199999D01*
X159200000Y-102833637D01*
X159180315Y-102900676D01*
X159144783Y-102936811D01*
X158931239Y-103079174D01*
X158864540Y-103099982D01*
X158862456Y-103100000D01*
X158299999Y-103100000D01*
X158000000Y-103399999D01*
X158000000Y-103537429D01*
X157980315Y-103604468D01*
X157979294Y-103606032D01*
X157977447Y-103608811D01*
X157926560Y-103708890D01*
X157906877Y-103775921D01*
X157894500Y-103862002D01*
X157894500Y-105554138D01*
X157874815Y-105621177D01*
X157858181Y-105641819D01*
X157536319Y-105963681D01*
X157474996Y-105997166D01*
X157448638Y-106000000D01*
X156259598Y-106000000D01*
X156192559Y-105980315D01*
X156162770Y-105953462D01*
X155827172Y-105533965D01*
X155800664Y-105469319D01*
X155800000Y-105456503D01*
X155800000Y-103741333D01*
X155819685Y-103674294D01*
X155824800Y-103666933D01*
X156400000Y-102900000D01*
X156400000Y-101454072D01*
X156419685Y-101387033D01*
X156439624Y-101363206D01*
X156615385Y-101200000D01*
X157764317Y-100133133D01*
X157826838Y-100101941D01*
X157848693Y-100100000D01*
X164944121Y-100100000D01*
X165011160Y-100119685D01*
G37*
%TD.AperFunction*%
%TD*%
%TA.AperFunction,Conductor*%
%TO.N,+3.3V*%
G36*
X160015677Y-103519685D02*
G01*
X160036319Y-103536319D01*
X160262246Y-103762246D01*
X160295731Y-103823569D01*
X160298517Y-103853370D01*
X160199999Y-107400000D01*
X160699999Y-107999999D01*
X160700000Y-108000000D01*
X164358667Y-108000000D01*
X164425706Y-108019685D01*
X164433067Y-108024800D01*
X164750400Y-108262800D01*
X164792221Y-108318771D01*
X164800000Y-108362000D01*
X164800000Y-111558666D01*
X164780315Y-111625705D01*
X164775200Y-111633066D01*
X164537200Y-111950400D01*
X164481229Y-111992221D01*
X164438000Y-112000000D01*
X157451362Y-112000000D01*
X157384323Y-111980315D01*
X157363681Y-111963681D01*
X157036319Y-111636319D01*
X157002834Y-111574996D01*
X157000000Y-111548638D01*
X157000000Y-107445870D01*
X157019685Y-107378831D01*
X157029848Y-107365177D01*
X158200000Y-106000000D01*
X158200000Y-103862000D01*
X158219685Y-103794961D01*
X158249600Y-103762800D01*
X158250339Y-103762246D01*
X158566933Y-103524799D01*
X158632375Y-103500324D01*
X158641333Y-103500000D01*
X159948638Y-103500000D01*
X160015677Y-103519685D01*
G37*
%TD.AperFunction*%
%TD*%
M02*
