M48
; DRILL file {KiCad 8.0.0} date 2024-03-15T15:48:31+0100
; FORMAT={-:-/ absolute / metric / decimal}
; #@! TF.CreationDate,2024-03-15T15:48:31+01:00
; #@! TF.GenerationSoftware,Kicad,Pcbnew,8.0.0
; #@! TF.FileFunction,MixedPlating,1,2
FMAT,2
METRIC
; #@! TA.AperFunction,Plated,PTH,ViaDrill
T1C0.300
; #@! TA.AperFunction,Plated,PTH,ComponentDrill
T2C0.550
; #@! TA.AperFunction,Plated,PTH,ComponentDrill
T3C0.850
; #@! TA.AperFunction,Plated,PTH,ComponentDrill
T4C1.000
; #@! TA.AperFunction,NonPlated,NPTH,ComponentDrill
T5C0.800
; #@! TA.AperFunction,NonPlated,NPTH,ComponentDrill
T6C0.900
; #@! TA.AperFunction,NonPlated,NPTH,ComponentDrill
T7C2.200
%
G90
G05
T1
X135.68Y-91.84
X137.4Y-101.5
X139.1Y-96.3
X140.9Y-96.73
X141.92Y-99.57
X143.02Y-103.98
X143.03Y-107.31
X144.0Y-95.44
X146.8Y-111.0
X147.34Y-101.2
X147.76Y-97.6
X148.635Y-105.895
X148.8Y-111.0
X150.0Y-108.4
X151.9Y-108.4
X152.25Y-102.87
X157.04Y-98.35
X161.2Y-106.1
X161.67Y-102.68
X161.69Y-101.74
X162.0Y-106.1
X164.41Y-97.7
X165.2Y-106.8
X168.0Y-104.4
X168.6Y-105.4
X168.6Y-106.6
T4
X139.93Y-87.0
X142.47Y-87.0
X145.01Y-87.0
X145.2Y-113.5
X147.55Y-87.0
X147.74Y-113.5
X150.28Y-113.5
X152.82Y-113.5
X154.68Y-87.0
X157.22Y-87.0
X159.76Y-87.0
X162.3Y-87.0
T5
X166.945Y-96.5
X166.945Y-101.5
T6
X132.895Y-93.5
X132.895Y-96.5
T7
X133.75Y-87.75
X133.75Y-112.75
X168.75Y-87.75
X168.75Y-112.75
T2
G00X169.37Y-95.125
M15
G01X170.02Y-95.125
M16
G05
G00X169.37Y-102.875
M15
G01X170.02Y-102.875
M16
G05
T3
G00X165.62Y-95.275
M15
G01X166.17Y-95.275
M16
G05
G00X165.62Y-102.725
M15
G01X166.17Y-102.725
M16
G05
M30
