%TF.GenerationSoftware,KiCad,Pcbnew,8.0.0*%
%TF.CreationDate,2024-03-15T15:48:41+01:00*%
%TF.ProjectId,STM32F103_BluePill,53544d33-3246-4313-9033-5f426c756550,rev?*%
%TF.SameCoordinates,Original*%
%TF.FileFunction,Soldermask,Top*%
%TF.FilePolarity,Negative*%
%FSLAX46Y46*%
G04 Gerber Fmt 4.6, Leading zero omitted, Abs format (unit mm)*
G04 Created by KiCad (PCBNEW 8.0.0) date 2024-03-15 15:48:41*
%MOMM*%
%LPD*%
G01*
G04 APERTURE LIST*
G04 Aperture macros list*
%AMRoundRect*
0 Rectangle with rounded corners*
0 $1 Rounding radius*
0 $2 $3 $4 $5 $6 $7 $8 $9 X,Y pos of 4 corners*
0 Add a 4 corners polygon primitive as box body*
4,1,4,$2,$3,$4,$5,$6,$7,$8,$9,$2,$3,0*
0 Add four circle primitives for the rounded corners*
1,1,$1+$1,$2,$3*
1,1,$1+$1,$4,$5*
1,1,$1+$1,$6,$7*
1,1,$1+$1,$8,$9*
0 Add four rect primitives between the rounded corners*
20,1,$1+$1,$2,$3,$4,$5,0*
20,1,$1+$1,$4,$5,$6,$7,0*
20,1,$1+$1,$6,$7,$8,$9,0*
20,1,$1+$1,$8,$9,$2,$3,0*%
G04 Aperture macros list end*
%ADD10C,2.200000*%
%ADD11RoundRect,0.225000X-0.225000X-0.250000X0.225000X-0.250000X0.225000X0.250000X-0.225000X0.250000X0*%
%ADD12O,0.800000X0.800000*%
%ADD13R,1.300000X0.450000*%
%ADD14O,1.800000X1.150000*%
%ADD15O,2.000000X1.450000*%
%ADD16RoundRect,0.140000X-0.140000X-0.170000X0.140000X-0.170000X0.140000X0.170000X-0.140000X0.170000X0*%
%ADD17RoundRect,0.140000X-0.170000X0.140000X-0.170000X-0.140000X0.170000X-0.140000X0.170000X0.140000X0*%
%ADD18RoundRect,0.135000X0.185000X-0.135000X0.185000X0.135000X-0.185000X0.135000X-0.185000X-0.135000X0*%
%ADD19RoundRect,0.140000X0.170000X-0.140000X0.170000X0.140000X-0.170000X0.140000X-0.170000X-0.140000X0*%
%ADD20RoundRect,0.250000X-0.250000X-0.475000X0.250000X-0.475000X0.250000X0.475000X-0.250000X0.475000X0*%
%ADD21RoundRect,0.140000X0.140000X0.170000X-0.140000X0.170000X-0.140000X-0.170000X0.140000X-0.170000X0*%
%ADD22R,1.700000X1.700000*%
%ADD23O,1.700000X1.700000*%
%ADD24RoundRect,0.075000X-0.662500X-0.075000X0.662500X-0.075000X0.662500X0.075000X-0.662500X0.075000X0*%
%ADD25RoundRect,0.075000X-0.075000X-0.662500X0.075000X-0.662500X0.075000X0.662500X-0.075000X0.662500X0*%
%ADD26RoundRect,0.250000X0.475000X-0.250000X0.475000X0.250000X-0.475000X0.250000X-0.475000X-0.250000X0*%
%ADD27R,1.200000X1.400000*%
%ADD28RoundRect,0.218750X-0.256250X0.218750X-0.256250X-0.218750X0.256250X-0.218750X0.256250X0.218750X0*%
%ADD29RoundRect,0.375000X-0.375000X0.625000X-0.375000X-0.625000X0.375000X-0.625000X0.375000X0.625000X0*%
%ADD30RoundRect,0.500000X-1.400000X0.500000X-1.400000X-0.500000X1.400000X-0.500000X1.400000X0.500000X0*%
%ADD31R,0.800000X1.000000*%
%ADD32C,0.900000*%
%ADD33R,1.500000X0.700000*%
%ADD34RoundRect,0.135000X0.135000X0.185000X-0.135000X0.185000X-0.135000X-0.185000X0.135000X-0.185000X0*%
%ADD35RoundRect,0.135000X-0.135000X-0.185000X0.135000X-0.185000X0.135000X0.185000X-0.135000X0.185000X0*%
%ADD36RoundRect,0.135000X-0.185000X0.135000X-0.185000X-0.135000X0.185000X-0.135000X0.185000X0.135000X0*%
G04 APERTURE END LIST*
D10*
%TO.C,H4*%
X133750000Y-87750000D03*
%TD*%
D11*
%TO.C,C3*%
X146725000Y-92500000D03*
X148275000Y-92500000D03*
%TD*%
D12*
%TO.C,J3*%
X166945000Y-101500000D03*
X166945000Y-96500000D03*
D13*
X165845000Y-100300000D03*
X165845000Y-99650000D03*
X165845000Y-99000000D03*
X165845000Y-98350000D03*
X165845000Y-97700000D03*
D14*
X169695000Y-102875000D03*
D15*
X165895000Y-102725000D03*
X165895000Y-95275000D03*
D14*
X169695000Y-95125000D03*
%TD*%
D16*
%TO.C,C4*%
X146790000Y-106250000D03*
X147750000Y-106250000D03*
%TD*%
D17*
%TO.C,C9*%
X156000000Y-97270000D03*
X156000000Y-98230000D03*
%TD*%
D18*
%TO.C,R4*%
X136600000Y-93910000D03*
X136600000Y-92890000D03*
%TD*%
D19*
%TO.C,C5*%
X140875000Y-98550000D03*
X140875000Y-97590000D03*
%TD*%
%TO.C,C11*%
X144020000Y-101730000D03*
X144020000Y-100770000D03*
%TD*%
D20*
%TO.C,C1*%
X158487500Y-102237500D03*
X160387500Y-102237500D03*
%TD*%
D21*
%TO.C,C12*%
X143980000Y-104750000D03*
X143020000Y-104750000D03*
%TD*%
D22*
%TO.C,J4*%
X162300000Y-87000000D03*
D23*
X159760000Y-87000000D03*
X157220000Y-87000000D03*
X154680000Y-87000000D03*
%TD*%
D10*
%TO.C,H2*%
X168750000Y-112750000D03*
%TD*%
%TO.C,H1*%
X133750000Y-112750000D03*
%TD*%
D19*
%TO.C,C6*%
X144000000Y-97480000D03*
X144000000Y-96520000D03*
%TD*%
D24*
%TO.C,U2*%
X145837500Y-97500000D03*
X145837500Y-98000000D03*
X145837500Y-98500000D03*
X145837500Y-99000000D03*
X145837500Y-99500000D03*
X145837500Y-100000000D03*
X145837500Y-100500000D03*
X145837500Y-101000000D03*
X145837500Y-101500000D03*
X145837500Y-102000000D03*
X145837500Y-102500000D03*
X145837500Y-103000000D03*
D25*
X147250000Y-104412500D03*
X147750000Y-104412500D03*
X148250000Y-104412500D03*
X148750000Y-104412500D03*
X149250000Y-104412500D03*
X149750000Y-104412500D03*
X150250000Y-104412500D03*
X150750000Y-104412500D03*
X151250000Y-104412500D03*
X151750000Y-104412500D03*
X152250000Y-104412500D03*
X152750000Y-104412500D03*
D24*
X154162500Y-103000000D03*
X154162500Y-102500000D03*
X154162500Y-102000000D03*
X154162500Y-101500000D03*
X154162500Y-101000000D03*
X154162500Y-100500000D03*
X154162500Y-100000000D03*
X154162500Y-99500000D03*
X154162500Y-99000000D03*
X154162500Y-98500000D03*
X154162500Y-98000000D03*
X154162500Y-97500000D03*
D25*
X152750000Y-96087500D03*
X152250000Y-96087500D03*
X151750000Y-96087500D03*
X151250000Y-96087500D03*
X150750000Y-96087500D03*
X150250000Y-96087500D03*
X149750000Y-96087500D03*
X149250000Y-96087500D03*
X148750000Y-96087500D03*
X148250000Y-96087500D03*
X147750000Y-96087500D03*
X147250000Y-96087500D03*
%TD*%
D21*
%TO.C,C13*%
X143980000Y-106250000D03*
X143020000Y-106250000D03*
%TD*%
D26*
%TO.C,C2*%
X163937500Y-108687500D03*
X163937500Y-106787500D03*
%TD*%
D27*
%TO.C,Y1*%
X137425000Y-97850000D03*
X137425000Y-100050000D03*
X139125000Y-100050000D03*
X139125000Y-97850000D03*
%TD*%
D28*
%TO.C,FB1*%
X145250000Y-104712500D03*
X145250000Y-106287500D03*
%TD*%
D29*
%TO.C,U1*%
X161550000Y-104600000D03*
X159250000Y-104600000D03*
D30*
X159250000Y-110900000D03*
D29*
X156950000Y-104600000D03*
%TD*%
D31*
%TO.C,SW1*%
X134005000Y-91350000D03*
X131795000Y-91350000D03*
D32*
X132895000Y-93500000D03*
X132895000Y-96500000D03*
D31*
X134005000Y-98650000D03*
X131795000Y-98650000D03*
D33*
X134655000Y-92750000D03*
X134655000Y-95750000D03*
X134655000Y-97250000D03*
%TD*%
D34*
%TO.C,R2*%
X148780000Y-109860000D03*
X147760000Y-109860000D03*
%TD*%
D10*
%TO.C,H3*%
X168750000Y-87750000D03*
%TD*%
D19*
%TO.C,C7*%
X140875000Y-100550000D03*
X140875000Y-99590000D03*
%TD*%
D35*
%TO.C,R3*%
X150010000Y-109860000D03*
X151030000Y-109860000D03*
%TD*%
D22*
%TO.C,J2*%
X145200000Y-113500000D03*
D23*
X147740000Y-113500000D03*
X150280000Y-113500000D03*
X152820000Y-113500000D03*
%TD*%
D16*
%TO.C,C10*%
X147020000Y-94250000D03*
X147980000Y-94250000D03*
%TD*%
D21*
%TO.C,C8*%
X153260000Y-106270000D03*
X152300000Y-106270000D03*
%TD*%
D22*
%TO.C,J1*%
X147550000Y-87000000D03*
D23*
X145010000Y-87000000D03*
X142470000Y-87000000D03*
X139930000Y-87000000D03*
%TD*%
D28*
%TO.C,D1*%
X166700000Y-107012500D03*
X166700000Y-108587500D03*
%TD*%
D35*
%TO.C,R1*%
X166790000Y-105400000D03*
X167810000Y-105400000D03*
%TD*%
D36*
%TO.C,R5*%
X159620000Y-97830000D03*
X159620000Y-98850000D03*
%TD*%
M02*
