%TF.GenerationSoftware,KiCad,Pcbnew,8.0.0*%
%TF.CreationDate,2024-03-15T15:48:41+01:00*%
%TF.ProjectId,STM32F103_BluePill,53544d33-3246-4313-9033-5f426c756550,rev?*%
%TF.SameCoordinates,Original*%
%TF.FileFunction,Legend,Top*%
%TF.FilePolarity,Positive*%
%FSLAX46Y46*%
G04 Gerber Fmt 4.6, Leading zero omitted, Abs format (unit mm)*
G04 Created by KiCad (PCBNEW 8.0.0) date 2024-03-15 15:48:41*
%MOMM*%
%LPD*%
G01*
G04 APERTURE LIST*
%ADD10C,0.200000*%
%ADD11C,0.150000*%
%ADD12C,0.120000*%
G04 APERTURE END LIST*
D10*
X167672619Y-92067873D02*
X167672619Y-93079778D01*
X167672619Y-93079778D02*
X167732142Y-93198826D01*
X167732142Y-93198826D02*
X167791666Y-93258350D01*
X167791666Y-93258350D02*
X167910714Y-93317873D01*
X167910714Y-93317873D02*
X168148809Y-93317873D01*
X168148809Y-93317873D02*
X168267857Y-93258350D01*
X168267857Y-93258350D02*
X168327380Y-93198826D01*
X168327380Y-93198826D02*
X168386904Y-93079778D01*
X168386904Y-93079778D02*
X168386904Y-92067873D01*
X168922619Y-93258350D02*
X169101190Y-93317873D01*
X169101190Y-93317873D02*
X169398809Y-93317873D01*
X169398809Y-93317873D02*
X169517857Y-93258350D01*
X169517857Y-93258350D02*
X169577381Y-93198826D01*
X169577381Y-93198826D02*
X169636904Y-93079778D01*
X169636904Y-93079778D02*
X169636904Y-92960730D01*
X169636904Y-92960730D02*
X169577381Y-92841683D01*
X169577381Y-92841683D02*
X169517857Y-92782159D01*
X169517857Y-92782159D02*
X169398809Y-92722635D01*
X169398809Y-92722635D02*
X169160714Y-92663111D01*
X169160714Y-92663111D02*
X169041666Y-92603588D01*
X169041666Y-92603588D02*
X168982143Y-92544064D01*
X168982143Y-92544064D02*
X168922619Y-92425016D01*
X168922619Y-92425016D02*
X168922619Y-92305969D01*
X168922619Y-92305969D02*
X168982143Y-92186921D01*
X168982143Y-92186921D02*
X169041666Y-92127397D01*
X169041666Y-92127397D02*
X169160714Y-92067873D01*
X169160714Y-92067873D02*
X169458333Y-92067873D01*
X169458333Y-92067873D02*
X169636904Y-92127397D01*
X170589285Y-92663111D02*
X170767857Y-92722635D01*
X170767857Y-92722635D02*
X170827380Y-92782159D01*
X170827380Y-92782159D02*
X170886904Y-92901207D01*
X170886904Y-92901207D02*
X170886904Y-93079778D01*
X170886904Y-93079778D02*
X170827380Y-93198826D01*
X170827380Y-93198826D02*
X170767857Y-93258350D01*
X170767857Y-93258350D02*
X170648809Y-93317873D01*
X170648809Y-93317873D02*
X170172619Y-93317873D01*
X170172619Y-93317873D02*
X170172619Y-92067873D01*
X170172619Y-92067873D02*
X170589285Y-92067873D01*
X170589285Y-92067873D02*
X170708333Y-92127397D01*
X170708333Y-92127397D02*
X170767857Y-92186921D01*
X170767857Y-92186921D02*
X170827380Y-92305969D01*
X170827380Y-92305969D02*
X170827380Y-92425016D01*
X170827380Y-92425016D02*
X170767857Y-92544064D01*
X170767857Y-92544064D02*
X170708333Y-92603588D01*
X170708333Y-92603588D02*
X170589285Y-92663111D01*
X170589285Y-92663111D02*
X170172619Y-92663111D01*
X154819048Y-113671266D02*
X155580953Y-113671266D01*
X136385714Y-97652219D02*
X135814286Y-97652219D01*
X136100000Y-97652219D02*
X136100000Y-96652219D01*
X136100000Y-96652219D02*
X136004762Y-96795076D01*
X136004762Y-96795076D02*
X135909524Y-96890314D01*
X135909524Y-96890314D02*
X135814286Y-96937933D01*
X137119048Y-87171266D02*
X137880953Y-87171266D01*
X168226190Y-107317873D02*
X168464285Y-107317873D01*
X168464285Y-107317873D02*
X168583333Y-107377397D01*
X168583333Y-107377397D02*
X168702380Y-107496445D01*
X168702380Y-107496445D02*
X168761904Y-107734540D01*
X168761904Y-107734540D02*
X168761904Y-108151207D01*
X168761904Y-108151207D02*
X168702380Y-108389302D01*
X168702380Y-108389302D02*
X168583333Y-108508350D01*
X168583333Y-108508350D02*
X168464285Y-108567873D01*
X168464285Y-108567873D02*
X168226190Y-108567873D01*
X168226190Y-108567873D02*
X168107142Y-108508350D01*
X168107142Y-108508350D02*
X167988095Y-108389302D01*
X167988095Y-108389302D02*
X167928571Y-108151207D01*
X167928571Y-108151207D02*
X167928571Y-107734540D01*
X167928571Y-107734540D02*
X167988095Y-107496445D01*
X167988095Y-107496445D02*
X168107142Y-107377397D01*
X168107142Y-107377397D02*
X168226190Y-107317873D01*
X169297619Y-108567873D02*
X169297619Y-107317873D01*
X169297619Y-107317873D02*
X170011904Y-108567873D01*
X170011904Y-108567873D02*
X170011904Y-107317873D01*
X131803571Y-100413111D02*
X131982143Y-100472635D01*
X131982143Y-100472635D02*
X132041666Y-100532159D01*
X132041666Y-100532159D02*
X132101190Y-100651207D01*
X132101190Y-100651207D02*
X132101190Y-100829778D01*
X132101190Y-100829778D02*
X132041666Y-100948826D01*
X132041666Y-100948826D02*
X131982143Y-101008350D01*
X131982143Y-101008350D02*
X131863095Y-101067873D01*
X131863095Y-101067873D02*
X131386905Y-101067873D01*
X131386905Y-101067873D02*
X131386905Y-99817873D01*
X131386905Y-99817873D02*
X131803571Y-99817873D01*
X131803571Y-99817873D02*
X131922619Y-99877397D01*
X131922619Y-99877397D02*
X131982143Y-99936921D01*
X131982143Y-99936921D02*
X132041666Y-100055969D01*
X132041666Y-100055969D02*
X132041666Y-100175016D01*
X132041666Y-100175016D02*
X131982143Y-100294064D01*
X131982143Y-100294064D02*
X131922619Y-100353588D01*
X131922619Y-100353588D02*
X131803571Y-100413111D01*
X131803571Y-100413111D02*
X131386905Y-100413111D01*
X132875000Y-99817873D02*
X133113095Y-99817873D01*
X133113095Y-99817873D02*
X133232143Y-99877397D01*
X133232143Y-99877397D02*
X133351190Y-99996445D01*
X133351190Y-99996445D02*
X133410714Y-100234540D01*
X133410714Y-100234540D02*
X133410714Y-100651207D01*
X133410714Y-100651207D02*
X133351190Y-100889302D01*
X133351190Y-100889302D02*
X133232143Y-101008350D01*
X133232143Y-101008350D02*
X133113095Y-101067873D01*
X133113095Y-101067873D02*
X132875000Y-101067873D01*
X132875000Y-101067873D02*
X132755952Y-101008350D01*
X132755952Y-101008350D02*
X132636905Y-100889302D01*
X132636905Y-100889302D02*
X132577381Y-100651207D01*
X132577381Y-100651207D02*
X132577381Y-100234540D01*
X132577381Y-100234540D02*
X132636905Y-99996445D01*
X132636905Y-99996445D02*
X132755952Y-99877397D01*
X132755952Y-99877397D02*
X132875000Y-99817873D01*
X134184524Y-99817873D02*
X134422619Y-99817873D01*
X134422619Y-99817873D02*
X134541667Y-99877397D01*
X134541667Y-99877397D02*
X134660714Y-99996445D01*
X134660714Y-99996445D02*
X134720238Y-100234540D01*
X134720238Y-100234540D02*
X134720238Y-100651207D01*
X134720238Y-100651207D02*
X134660714Y-100889302D01*
X134660714Y-100889302D02*
X134541667Y-101008350D01*
X134541667Y-101008350D02*
X134422619Y-101067873D01*
X134422619Y-101067873D02*
X134184524Y-101067873D01*
X134184524Y-101067873D02*
X134065476Y-101008350D01*
X134065476Y-101008350D02*
X133946429Y-100889302D01*
X133946429Y-100889302D02*
X133886905Y-100651207D01*
X133886905Y-100651207D02*
X133886905Y-100234540D01*
X133886905Y-100234540D02*
X133946429Y-99996445D01*
X133946429Y-99996445D02*
X134065476Y-99877397D01*
X134065476Y-99877397D02*
X134184524Y-99817873D01*
X135077381Y-99817873D02*
X135791667Y-99817873D01*
X135434524Y-101067873D02*
X135434524Y-99817873D01*
X151919048Y-87171266D02*
X152680953Y-87171266D01*
X141755952Y-89067873D02*
X141755952Y-90079778D01*
X141755952Y-90079778D02*
X141815475Y-90198826D01*
X141815475Y-90198826D02*
X141874999Y-90258350D01*
X141874999Y-90258350D02*
X141994047Y-90317873D01*
X141994047Y-90317873D02*
X142232142Y-90317873D01*
X142232142Y-90317873D02*
X142351190Y-90258350D01*
X142351190Y-90258350D02*
X142410713Y-90198826D01*
X142410713Y-90198826D02*
X142470237Y-90079778D01*
X142470237Y-90079778D02*
X142470237Y-89067873D01*
X143005952Y-89960730D02*
X143601190Y-89960730D01*
X142886904Y-90317873D02*
X143303571Y-89067873D01*
X143303571Y-89067873D02*
X143720237Y-90317873D01*
X144851190Y-90317873D02*
X144434524Y-89722635D01*
X144136905Y-90317873D02*
X144136905Y-89067873D01*
X144136905Y-89067873D02*
X144613095Y-89067873D01*
X144613095Y-89067873D02*
X144732143Y-89127397D01*
X144732143Y-89127397D02*
X144791666Y-89186921D01*
X144791666Y-89186921D02*
X144851190Y-89305969D01*
X144851190Y-89305969D02*
X144851190Y-89484540D01*
X144851190Y-89484540D02*
X144791666Y-89603588D01*
X144791666Y-89603588D02*
X144732143Y-89663111D01*
X144732143Y-89663111D02*
X144613095Y-89722635D01*
X144613095Y-89722635D02*
X144136905Y-89722635D01*
X145208333Y-89067873D02*
X145922619Y-89067873D01*
X145565476Y-90317873D02*
X145565476Y-89067873D01*
X156803572Y-90258350D02*
X156982143Y-90317873D01*
X156982143Y-90317873D02*
X157279762Y-90317873D01*
X157279762Y-90317873D02*
X157398810Y-90258350D01*
X157398810Y-90258350D02*
X157458334Y-90198826D01*
X157458334Y-90198826D02*
X157517857Y-90079778D01*
X157517857Y-90079778D02*
X157517857Y-89960730D01*
X157517857Y-89960730D02*
X157458334Y-89841683D01*
X157458334Y-89841683D02*
X157398810Y-89782159D01*
X157398810Y-89782159D02*
X157279762Y-89722635D01*
X157279762Y-89722635D02*
X157041667Y-89663111D01*
X157041667Y-89663111D02*
X156922619Y-89603588D01*
X156922619Y-89603588D02*
X156863096Y-89544064D01*
X156863096Y-89544064D02*
X156803572Y-89425016D01*
X156803572Y-89425016D02*
X156803572Y-89305969D01*
X156803572Y-89305969D02*
X156863096Y-89186921D01*
X156863096Y-89186921D02*
X156922619Y-89127397D01*
X156922619Y-89127397D02*
X157041667Y-89067873D01*
X157041667Y-89067873D02*
X157339286Y-89067873D01*
X157339286Y-89067873D02*
X157517857Y-89127397D01*
X157934524Y-89067873D02*
X158232143Y-90317873D01*
X158232143Y-90317873D02*
X158470238Y-89425016D01*
X158470238Y-89425016D02*
X158708333Y-90317873D01*
X158708333Y-90317873D02*
X159005953Y-89067873D01*
X159482143Y-90317873D02*
X159482143Y-89067873D01*
X159482143Y-89067873D02*
X159779762Y-89067873D01*
X159779762Y-89067873D02*
X159958333Y-89127397D01*
X159958333Y-89127397D02*
X160077381Y-89246445D01*
X160077381Y-89246445D02*
X160136904Y-89365492D01*
X160136904Y-89365492D02*
X160196428Y-89603588D01*
X160196428Y-89603588D02*
X160196428Y-89782159D01*
X160196428Y-89782159D02*
X160136904Y-90020254D01*
X160136904Y-90020254D02*
X160077381Y-90139302D01*
X160077381Y-90139302D02*
X159958333Y-90258350D01*
X159958333Y-90258350D02*
X159779762Y-90317873D01*
X159779762Y-90317873D02*
X159482143Y-90317873D01*
X140529762Y-114067873D02*
X140529762Y-112817873D01*
X141065476Y-112936921D02*
X141125000Y-112877397D01*
X141125000Y-112877397D02*
X141244047Y-112817873D01*
X141244047Y-112817873D02*
X141541666Y-112817873D01*
X141541666Y-112817873D02*
X141660714Y-112877397D01*
X141660714Y-112877397D02*
X141720238Y-112936921D01*
X141720238Y-112936921D02*
X141779761Y-113055969D01*
X141779761Y-113055969D02*
X141779761Y-113175016D01*
X141779761Y-113175016D02*
X141720238Y-113353588D01*
X141720238Y-113353588D02*
X141005952Y-114067873D01*
X141005952Y-114067873D02*
X141779761Y-114067873D01*
X143029761Y-113948826D02*
X142970237Y-114008350D01*
X142970237Y-114008350D02*
X142791666Y-114067873D01*
X142791666Y-114067873D02*
X142672618Y-114067873D01*
X142672618Y-114067873D02*
X142494047Y-114008350D01*
X142494047Y-114008350D02*
X142374999Y-113889302D01*
X142374999Y-113889302D02*
X142315476Y-113770254D01*
X142315476Y-113770254D02*
X142255952Y-113532159D01*
X142255952Y-113532159D02*
X142255952Y-113353588D01*
X142255952Y-113353588D02*
X142315476Y-113115492D01*
X142315476Y-113115492D02*
X142374999Y-112996445D01*
X142374999Y-112996445D02*
X142494047Y-112877397D01*
X142494047Y-112877397D02*
X142672618Y-112817873D01*
X142672618Y-112817873D02*
X142791666Y-112817873D01*
X142791666Y-112817873D02*
X142970237Y-112877397D01*
X142970237Y-112877397D02*
X143029761Y-112936921D01*
D11*
X144808333Y-92859580D02*
X144760714Y-92907200D01*
X144760714Y-92907200D02*
X144617857Y-92954819D01*
X144617857Y-92954819D02*
X144522619Y-92954819D01*
X144522619Y-92954819D02*
X144379762Y-92907200D01*
X144379762Y-92907200D02*
X144284524Y-92811961D01*
X144284524Y-92811961D02*
X144236905Y-92716723D01*
X144236905Y-92716723D02*
X144189286Y-92526247D01*
X144189286Y-92526247D02*
X144189286Y-92383390D01*
X144189286Y-92383390D02*
X144236905Y-92192914D01*
X144236905Y-92192914D02*
X144284524Y-92097676D01*
X144284524Y-92097676D02*
X144379762Y-92002438D01*
X144379762Y-92002438D02*
X144522619Y-91954819D01*
X144522619Y-91954819D02*
X144617857Y-91954819D01*
X144617857Y-91954819D02*
X144760714Y-92002438D01*
X144760714Y-92002438D02*
X144808333Y-92050057D01*
X145141667Y-91954819D02*
X145760714Y-91954819D01*
X145760714Y-91954819D02*
X145427381Y-92335771D01*
X145427381Y-92335771D02*
X145570238Y-92335771D01*
X145570238Y-92335771D02*
X145665476Y-92383390D01*
X145665476Y-92383390D02*
X145713095Y-92431009D01*
X145713095Y-92431009D02*
X145760714Y-92526247D01*
X145760714Y-92526247D02*
X145760714Y-92764342D01*
X145760714Y-92764342D02*
X145713095Y-92859580D01*
X145713095Y-92859580D02*
X145665476Y-92907200D01*
X145665476Y-92907200D02*
X145570238Y-92954819D01*
X145570238Y-92954819D02*
X145284524Y-92954819D01*
X145284524Y-92954819D02*
X145189286Y-92907200D01*
X145189286Y-92907200D02*
X145141667Y-92859580D01*
X147183333Y-107799580D02*
X147135714Y-107847200D01*
X147135714Y-107847200D02*
X146992857Y-107894819D01*
X146992857Y-107894819D02*
X146897619Y-107894819D01*
X146897619Y-107894819D02*
X146754762Y-107847200D01*
X146754762Y-107847200D02*
X146659524Y-107751961D01*
X146659524Y-107751961D02*
X146611905Y-107656723D01*
X146611905Y-107656723D02*
X146564286Y-107466247D01*
X146564286Y-107466247D02*
X146564286Y-107323390D01*
X146564286Y-107323390D02*
X146611905Y-107132914D01*
X146611905Y-107132914D02*
X146659524Y-107037676D01*
X146659524Y-107037676D02*
X146754762Y-106942438D01*
X146754762Y-106942438D02*
X146897619Y-106894819D01*
X146897619Y-106894819D02*
X146992857Y-106894819D01*
X146992857Y-106894819D02*
X147135714Y-106942438D01*
X147135714Y-106942438D02*
X147183333Y-106990057D01*
X148040476Y-107228152D02*
X148040476Y-107894819D01*
X147802381Y-106847200D02*
X147564286Y-107561485D01*
X147564286Y-107561485D02*
X148183333Y-107561485D01*
X157273333Y-97769580D02*
X157225714Y-97817200D01*
X157225714Y-97817200D02*
X157082857Y-97864819D01*
X157082857Y-97864819D02*
X156987619Y-97864819D01*
X156987619Y-97864819D02*
X156844762Y-97817200D01*
X156844762Y-97817200D02*
X156749524Y-97721961D01*
X156749524Y-97721961D02*
X156701905Y-97626723D01*
X156701905Y-97626723D02*
X156654286Y-97436247D01*
X156654286Y-97436247D02*
X156654286Y-97293390D01*
X156654286Y-97293390D02*
X156701905Y-97102914D01*
X156701905Y-97102914D02*
X156749524Y-97007676D01*
X156749524Y-97007676D02*
X156844762Y-96912438D01*
X156844762Y-96912438D02*
X156987619Y-96864819D01*
X156987619Y-96864819D02*
X157082857Y-96864819D01*
X157082857Y-96864819D02*
X157225714Y-96912438D01*
X157225714Y-96912438D02*
X157273333Y-96960057D01*
X157749524Y-97864819D02*
X157940000Y-97864819D01*
X157940000Y-97864819D02*
X158035238Y-97817200D01*
X158035238Y-97817200D02*
X158082857Y-97769580D01*
X158082857Y-97769580D02*
X158178095Y-97626723D01*
X158178095Y-97626723D02*
X158225714Y-97436247D01*
X158225714Y-97436247D02*
X158225714Y-97055295D01*
X158225714Y-97055295D02*
X158178095Y-96960057D01*
X158178095Y-96960057D02*
X158130476Y-96912438D01*
X158130476Y-96912438D02*
X158035238Y-96864819D01*
X158035238Y-96864819D02*
X157844762Y-96864819D01*
X157844762Y-96864819D02*
X157749524Y-96912438D01*
X157749524Y-96912438D02*
X157701905Y-96960057D01*
X157701905Y-96960057D02*
X157654286Y-97055295D01*
X157654286Y-97055295D02*
X157654286Y-97293390D01*
X157654286Y-97293390D02*
X157701905Y-97388628D01*
X157701905Y-97388628D02*
X157749524Y-97436247D01*
X157749524Y-97436247D02*
X157844762Y-97483866D01*
X157844762Y-97483866D02*
X158035238Y-97483866D01*
X158035238Y-97483866D02*
X158130476Y-97436247D01*
X158130476Y-97436247D02*
X158178095Y-97388628D01*
X158178095Y-97388628D02*
X158225714Y-97293390D01*
X136733333Y-92234819D02*
X136400000Y-91758628D01*
X136161905Y-92234819D02*
X136161905Y-91234819D01*
X136161905Y-91234819D02*
X136542857Y-91234819D01*
X136542857Y-91234819D02*
X136638095Y-91282438D01*
X136638095Y-91282438D02*
X136685714Y-91330057D01*
X136685714Y-91330057D02*
X136733333Y-91425295D01*
X136733333Y-91425295D02*
X136733333Y-91568152D01*
X136733333Y-91568152D02*
X136685714Y-91663390D01*
X136685714Y-91663390D02*
X136638095Y-91711009D01*
X136638095Y-91711009D02*
X136542857Y-91758628D01*
X136542857Y-91758628D02*
X136161905Y-91758628D01*
X137590476Y-91568152D02*
X137590476Y-92234819D01*
X137352381Y-91187200D02*
X137114286Y-91901485D01*
X137114286Y-91901485D02*
X137733333Y-91901485D01*
X140703333Y-96289580D02*
X140655714Y-96337200D01*
X140655714Y-96337200D02*
X140512857Y-96384819D01*
X140512857Y-96384819D02*
X140417619Y-96384819D01*
X140417619Y-96384819D02*
X140274762Y-96337200D01*
X140274762Y-96337200D02*
X140179524Y-96241961D01*
X140179524Y-96241961D02*
X140131905Y-96146723D01*
X140131905Y-96146723D02*
X140084286Y-95956247D01*
X140084286Y-95956247D02*
X140084286Y-95813390D01*
X140084286Y-95813390D02*
X140131905Y-95622914D01*
X140131905Y-95622914D02*
X140179524Y-95527676D01*
X140179524Y-95527676D02*
X140274762Y-95432438D01*
X140274762Y-95432438D02*
X140417619Y-95384819D01*
X140417619Y-95384819D02*
X140512857Y-95384819D01*
X140512857Y-95384819D02*
X140655714Y-95432438D01*
X140655714Y-95432438D02*
X140703333Y-95480057D01*
X141608095Y-95384819D02*
X141131905Y-95384819D01*
X141131905Y-95384819D02*
X141084286Y-95861009D01*
X141084286Y-95861009D02*
X141131905Y-95813390D01*
X141131905Y-95813390D02*
X141227143Y-95765771D01*
X141227143Y-95765771D02*
X141465238Y-95765771D01*
X141465238Y-95765771D02*
X141560476Y-95813390D01*
X141560476Y-95813390D02*
X141608095Y-95861009D01*
X141608095Y-95861009D02*
X141655714Y-95956247D01*
X141655714Y-95956247D02*
X141655714Y-96194342D01*
X141655714Y-96194342D02*
X141608095Y-96289580D01*
X141608095Y-96289580D02*
X141560476Y-96337200D01*
X141560476Y-96337200D02*
X141465238Y-96384819D01*
X141465238Y-96384819D02*
X141227143Y-96384819D01*
X141227143Y-96384819D02*
X141131905Y-96337200D01*
X141131905Y-96337200D02*
X141084286Y-96289580D01*
X142857142Y-103359580D02*
X142809523Y-103407200D01*
X142809523Y-103407200D02*
X142666666Y-103454819D01*
X142666666Y-103454819D02*
X142571428Y-103454819D01*
X142571428Y-103454819D02*
X142428571Y-103407200D01*
X142428571Y-103407200D02*
X142333333Y-103311961D01*
X142333333Y-103311961D02*
X142285714Y-103216723D01*
X142285714Y-103216723D02*
X142238095Y-103026247D01*
X142238095Y-103026247D02*
X142238095Y-102883390D01*
X142238095Y-102883390D02*
X142285714Y-102692914D01*
X142285714Y-102692914D02*
X142333333Y-102597676D01*
X142333333Y-102597676D02*
X142428571Y-102502438D01*
X142428571Y-102502438D02*
X142571428Y-102454819D01*
X142571428Y-102454819D02*
X142666666Y-102454819D01*
X142666666Y-102454819D02*
X142809523Y-102502438D01*
X142809523Y-102502438D02*
X142857142Y-102550057D01*
X143809523Y-103454819D02*
X143238095Y-103454819D01*
X143523809Y-103454819D02*
X143523809Y-102454819D01*
X143523809Y-102454819D02*
X143428571Y-102597676D01*
X143428571Y-102597676D02*
X143333333Y-102692914D01*
X143333333Y-102692914D02*
X143238095Y-102740533D01*
X144761904Y-103454819D02*
X144190476Y-103454819D01*
X144476190Y-103454819D02*
X144476190Y-102454819D01*
X144476190Y-102454819D02*
X144380952Y-102597676D01*
X144380952Y-102597676D02*
X144285714Y-102692914D01*
X144285714Y-102692914D02*
X144190476Y-102740533D01*
X156583333Y-102597080D02*
X156535714Y-102644700D01*
X156535714Y-102644700D02*
X156392857Y-102692319D01*
X156392857Y-102692319D02*
X156297619Y-102692319D01*
X156297619Y-102692319D02*
X156154762Y-102644700D01*
X156154762Y-102644700D02*
X156059524Y-102549461D01*
X156059524Y-102549461D02*
X156011905Y-102454223D01*
X156011905Y-102454223D02*
X155964286Y-102263747D01*
X155964286Y-102263747D02*
X155964286Y-102120890D01*
X155964286Y-102120890D02*
X156011905Y-101930414D01*
X156011905Y-101930414D02*
X156059524Y-101835176D01*
X156059524Y-101835176D02*
X156154762Y-101739938D01*
X156154762Y-101739938D02*
X156297619Y-101692319D01*
X156297619Y-101692319D02*
X156392857Y-101692319D01*
X156392857Y-101692319D02*
X156535714Y-101739938D01*
X156535714Y-101739938D02*
X156583333Y-101787557D01*
X157535714Y-102692319D02*
X156964286Y-102692319D01*
X157250000Y-102692319D02*
X157250000Y-101692319D01*
X157250000Y-101692319D02*
X157154762Y-101835176D01*
X157154762Y-101835176D02*
X157059524Y-101930414D01*
X157059524Y-101930414D02*
X156964286Y-101978033D01*
X140357142Y-105109580D02*
X140309523Y-105157200D01*
X140309523Y-105157200D02*
X140166666Y-105204819D01*
X140166666Y-105204819D02*
X140071428Y-105204819D01*
X140071428Y-105204819D02*
X139928571Y-105157200D01*
X139928571Y-105157200D02*
X139833333Y-105061961D01*
X139833333Y-105061961D02*
X139785714Y-104966723D01*
X139785714Y-104966723D02*
X139738095Y-104776247D01*
X139738095Y-104776247D02*
X139738095Y-104633390D01*
X139738095Y-104633390D02*
X139785714Y-104442914D01*
X139785714Y-104442914D02*
X139833333Y-104347676D01*
X139833333Y-104347676D02*
X139928571Y-104252438D01*
X139928571Y-104252438D02*
X140071428Y-104204819D01*
X140071428Y-104204819D02*
X140166666Y-104204819D01*
X140166666Y-104204819D02*
X140309523Y-104252438D01*
X140309523Y-104252438D02*
X140357142Y-104300057D01*
X141309523Y-105204819D02*
X140738095Y-105204819D01*
X141023809Y-105204819D02*
X141023809Y-104204819D01*
X141023809Y-104204819D02*
X140928571Y-104347676D01*
X140928571Y-104347676D02*
X140833333Y-104442914D01*
X140833333Y-104442914D02*
X140738095Y-104490533D01*
X141690476Y-104300057D02*
X141738095Y-104252438D01*
X141738095Y-104252438D02*
X141833333Y-104204819D01*
X141833333Y-104204819D02*
X142071428Y-104204819D01*
X142071428Y-104204819D02*
X142166666Y-104252438D01*
X142166666Y-104252438D02*
X142214285Y-104300057D01*
X142214285Y-104300057D02*
X142261904Y-104395295D01*
X142261904Y-104395295D02*
X142261904Y-104490533D01*
X142261904Y-104490533D02*
X142214285Y-104633390D01*
X142214285Y-104633390D02*
X141642857Y-105204819D01*
X141642857Y-105204819D02*
X142261904Y-105204819D01*
X145203333Y-96279580D02*
X145155714Y-96327200D01*
X145155714Y-96327200D02*
X145012857Y-96374819D01*
X145012857Y-96374819D02*
X144917619Y-96374819D01*
X144917619Y-96374819D02*
X144774762Y-96327200D01*
X144774762Y-96327200D02*
X144679524Y-96231961D01*
X144679524Y-96231961D02*
X144631905Y-96136723D01*
X144631905Y-96136723D02*
X144584286Y-95946247D01*
X144584286Y-95946247D02*
X144584286Y-95803390D01*
X144584286Y-95803390D02*
X144631905Y-95612914D01*
X144631905Y-95612914D02*
X144679524Y-95517676D01*
X144679524Y-95517676D02*
X144774762Y-95422438D01*
X144774762Y-95422438D02*
X144917619Y-95374819D01*
X144917619Y-95374819D02*
X145012857Y-95374819D01*
X145012857Y-95374819D02*
X145155714Y-95422438D01*
X145155714Y-95422438D02*
X145203333Y-95470057D01*
X146060476Y-95374819D02*
X145870000Y-95374819D01*
X145870000Y-95374819D02*
X145774762Y-95422438D01*
X145774762Y-95422438D02*
X145727143Y-95470057D01*
X145727143Y-95470057D02*
X145631905Y-95612914D01*
X145631905Y-95612914D02*
X145584286Y-95803390D01*
X145584286Y-95803390D02*
X145584286Y-96184342D01*
X145584286Y-96184342D02*
X145631905Y-96279580D01*
X145631905Y-96279580D02*
X145679524Y-96327200D01*
X145679524Y-96327200D02*
X145774762Y-96374819D01*
X145774762Y-96374819D02*
X145965238Y-96374819D01*
X145965238Y-96374819D02*
X146060476Y-96327200D01*
X146060476Y-96327200D02*
X146108095Y-96279580D01*
X146108095Y-96279580D02*
X146155714Y-96184342D01*
X146155714Y-96184342D02*
X146155714Y-95946247D01*
X146155714Y-95946247D02*
X146108095Y-95851009D01*
X146108095Y-95851009D02*
X146060476Y-95803390D01*
X146060476Y-95803390D02*
X145965238Y-95755771D01*
X145965238Y-95755771D02*
X145774762Y-95755771D01*
X145774762Y-95755771D02*
X145679524Y-95803390D01*
X145679524Y-95803390D02*
X145631905Y-95851009D01*
X145631905Y-95851009D02*
X145584286Y-95946247D01*
X149238095Y-93854819D02*
X149238095Y-94664342D01*
X149238095Y-94664342D02*
X149285714Y-94759580D01*
X149285714Y-94759580D02*
X149333333Y-94807200D01*
X149333333Y-94807200D02*
X149428571Y-94854819D01*
X149428571Y-94854819D02*
X149619047Y-94854819D01*
X149619047Y-94854819D02*
X149714285Y-94807200D01*
X149714285Y-94807200D02*
X149761904Y-94759580D01*
X149761904Y-94759580D02*
X149809523Y-94664342D01*
X149809523Y-94664342D02*
X149809523Y-93854819D01*
X150238095Y-93950057D02*
X150285714Y-93902438D01*
X150285714Y-93902438D02*
X150380952Y-93854819D01*
X150380952Y-93854819D02*
X150619047Y-93854819D01*
X150619047Y-93854819D02*
X150714285Y-93902438D01*
X150714285Y-93902438D02*
X150761904Y-93950057D01*
X150761904Y-93950057D02*
X150809523Y-94045295D01*
X150809523Y-94045295D02*
X150809523Y-94140533D01*
X150809523Y-94140533D02*
X150761904Y-94283390D01*
X150761904Y-94283390D02*
X150190476Y-94854819D01*
X150190476Y-94854819D02*
X150809523Y-94854819D01*
X140357142Y-106609580D02*
X140309523Y-106657200D01*
X140309523Y-106657200D02*
X140166666Y-106704819D01*
X140166666Y-106704819D02*
X140071428Y-106704819D01*
X140071428Y-106704819D02*
X139928571Y-106657200D01*
X139928571Y-106657200D02*
X139833333Y-106561961D01*
X139833333Y-106561961D02*
X139785714Y-106466723D01*
X139785714Y-106466723D02*
X139738095Y-106276247D01*
X139738095Y-106276247D02*
X139738095Y-106133390D01*
X139738095Y-106133390D02*
X139785714Y-105942914D01*
X139785714Y-105942914D02*
X139833333Y-105847676D01*
X139833333Y-105847676D02*
X139928571Y-105752438D01*
X139928571Y-105752438D02*
X140071428Y-105704819D01*
X140071428Y-105704819D02*
X140166666Y-105704819D01*
X140166666Y-105704819D02*
X140309523Y-105752438D01*
X140309523Y-105752438D02*
X140357142Y-105800057D01*
X141309523Y-106704819D02*
X140738095Y-106704819D01*
X141023809Y-106704819D02*
X141023809Y-105704819D01*
X141023809Y-105704819D02*
X140928571Y-105847676D01*
X140928571Y-105847676D02*
X140833333Y-105942914D01*
X140833333Y-105942914D02*
X140738095Y-105990533D01*
X141642857Y-105704819D02*
X142261904Y-105704819D01*
X142261904Y-105704819D02*
X141928571Y-106085771D01*
X141928571Y-106085771D02*
X142071428Y-106085771D01*
X142071428Y-106085771D02*
X142166666Y-106133390D01*
X142166666Y-106133390D02*
X142214285Y-106181009D01*
X142214285Y-106181009D02*
X142261904Y-106276247D01*
X142261904Y-106276247D02*
X142261904Y-106514342D01*
X142261904Y-106514342D02*
X142214285Y-106609580D01*
X142214285Y-106609580D02*
X142166666Y-106657200D01*
X142166666Y-106657200D02*
X142071428Y-106704819D01*
X142071428Y-106704819D02*
X141785714Y-106704819D01*
X141785714Y-106704819D02*
X141690476Y-106657200D01*
X141690476Y-106657200D02*
X141642857Y-106609580D01*
X163770833Y-105597080D02*
X163723214Y-105644700D01*
X163723214Y-105644700D02*
X163580357Y-105692319D01*
X163580357Y-105692319D02*
X163485119Y-105692319D01*
X163485119Y-105692319D02*
X163342262Y-105644700D01*
X163342262Y-105644700D02*
X163247024Y-105549461D01*
X163247024Y-105549461D02*
X163199405Y-105454223D01*
X163199405Y-105454223D02*
X163151786Y-105263747D01*
X163151786Y-105263747D02*
X163151786Y-105120890D01*
X163151786Y-105120890D02*
X163199405Y-104930414D01*
X163199405Y-104930414D02*
X163247024Y-104835176D01*
X163247024Y-104835176D02*
X163342262Y-104739938D01*
X163342262Y-104739938D02*
X163485119Y-104692319D01*
X163485119Y-104692319D02*
X163580357Y-104692319D01*
X163580357Y-104692319D02*
X163723214Y-104739938D01*
X163723214Y-104739938D02*
X163770833Y-104787557D01*
X164151786Y-104787557D02*
X164199405Y-104739938D01*
X164199405Y-104739938D02*
X164294643Y-104692319D01*
X164294643Y-104692319D02*
X164532738Y-104692319D01*
X164532738Y-104692319D02*
X164627976Y-104739938D01*
X164627976Y-104739938D02*
X164675595Y-104787557D01*
X164675595Y-104787557D02*
X164723214Y-104882795D01*
X164723214Y-104882795D02*
X164723214Y-104978033D01*
X164723214Y-104978033D02*
X164675595Y-105120890D01*
X164675595Y-105120890D02*
X164104167Y-105692319D01*
X164104167Y-105692319D02*
X164723214Y-105692319D01*
X136123809Y-101678628D02*
X136123809Y-102154819D01*
X135790476Y-101154819D02*
X136123809Y-101678628D01*
X136123809Y-101678628D02*
X136457142Y-101154819D01*
X137314285Y-102154819D02*
X136742857Y-102154819D01*
X137028571Y-102154819D02*
X137028571Y-101154819D01*
X137028571Y-101154819D02*
X136933333Y-101297676D01*
X136933333Y-101297676D02*
X136838095Y-101392914D01*
X136838095Y-101392914D02*
X136742857Y-101440533D01*
X144156666Y-107671009D02*
X143823333Y-107671009D01*
X143823333Y-108194819D02*
X143823333Y-107194819D01*
X143823333Y-107194819D02*
X144299523Y-107194819D01*
X145013809Y-107671009D02*
X145156666Y-107718628D01*
X145156666Y-107718628D02*
X145204285Y-107766247D01*
X145204285Y-107766247D02*
X145251904Y-107861485D01*
X145251904Y-107861485D02*
X145251904Y-108004342D01*
X145251904Y-108004342D02*
X145204285Y-108099580D01*
X145204285Y-108099580D02*
X145156666Y-108147200D01*
X145156666Y-108147200D02*
X145061428Y-108194819D01*
X145061428Y-108194819D02*
X144680476Y-108194819D01*
X144680476Y-108194819D02*
X144680476Y-107194819D01*
X144680476Y-107194819D02*
X145013809Y-107194819D01*
X145013809Y-107194819D02*
X145109047Y-107242438D01*
X145109047Y-107242438D02*
X145156666Y-107290057D01*
X145156666Y-107290057D02*
X145204285Y-107385295D01*
X145204285Y-107385295D02*
X145204285Y-107480533D01*
X145204285Y-107480533D02*
X145156666Y-107575771D01*
X145156666Y-107575771D02*
X145109047Y-107623390D01*
X145109047Y-107623390D02*
X145013809Y-107671009D01*
X145013809Y-107671009D02*
X144680476Y-107671009D01*
X146204285Y-108194819D02*
X145632857Y-108194819D01*
X145918571Y-108194819D02*
X145918571Y-107194819D01*
X145918571Y-107194819D02*
X145823333Y-107337676D01*
X145823333Y-107337676D02*
X145728095Y-107432914D01*
X145728095Y-107432914D02*
X145632857Y-107480533D01*
X158488095Y-112454819D02*
X158488095Y-113264342D01*
X158488095Y-113264342D02*
X158535714Y-113359580D01*
X158535714Y-113359580D02*
X158583333Y-113407200D01*
X158583333Y-113407200D02*
X158678571Y-113454819D01*
X158678571Y-113454819D02*
X158869047Y-113454819D01*
X158869047Y-113454819D02*
X158964285Y-113407200D01*
X158964285Y-113407200D02*
X159011904Y-113359580D01*
X159011904Y-113359580D02*
X159059523Y-113264342D01*
X159059523Y-113264342D02*
X159059523Y-112454819D01*
X160059523Y-113454819D02*
X159488095Y-113454819D01*
X159773809Y-113454819D02*
X159773809Y-112454819D01*
X159773809Y-112454819D02*
X159678571Y-112597676D01*
X159678571Y-112597676D02*
X159583333Y-112692914D01*
X159583333Y-112692914D02*
X159488095Y-112740533D01*
X146103333Y-110314819D02*
X145770000Y-109838628D01*
X145531905Y-110314819D02*
X145531905Y-109314819D01*
X145531905Y-109314819D02*
X145912857Y-109314819D01*
X145912857Y-109314819D02*
X146008095Y-109362438D01*
X146008095Y-109362438D02*
X146055714Y-109410057D01*
X146055714Y-109410057D02*
X146103333Y-109505295D01*
X146103333Y-109505295D02*
X146103333Y-109648152D01*
X146103333Y-109648152D02*
X146055714Y-109743390D01*
X146055714Y-109743390D02*
X146008095Y-109791009D01*
X146008095Y-109791009D02*
X145912857Y-109838628D01*
X145912857Y-109838628D02*
X145531905Y-109838628D01*
X146484286Y-109410057D02*
X146531905Y-109362438D01*
X146531905Y-109362438D02*
X146627143Y-109314819D01*
X146627143Y-109314819D02*
X146865238Y-109314819D01*
X146865238Y-109314819D02*
X146960476Y-109362438D01*
X146960476Y-109362438D02*
X147008095Y-109410057D01*
X147008095Y-109410057D02*
X147055714Y-109505295D01*
X147055714Y-109505295D02*
X147055714Y-109600533D01*
X147055714Y-109600533D02*
X147008095Y-109743390D01*
X147008095Y-109743390D02*
X146436667Y-110314819D01*
X146436667Y-110314819D02*
X147055714Y-110314819D01*
X140358333Y-102159580D02*
X140310714Y-102207200D01*
X140310714Y-102207200D02*
X140167857Y-102254819D01*
X140167857Y-102254819D02*
X140072619Y-102254819D01*
X140072619Y-102254819D02*
X139929762Y-102207200D01*
X139929762Y-102207200D02*
X139834524Y-102111961D01*
X139834524Y-102111961D02*
X139786905Y-102016723D01*
X139786905Y-102016723D02*
X139739286Y-101826247D01*
X139739286Y-101826247D02*
X139739286Y-101683390D01*
X139739286Y-101683390D02*
X139786905Y-101492914D01*
X139786905Y-101492914D02*
X139834524Y-101397676D01*
X139834524Y-101397676D02*
X139929762Y-101302438D01*
X139929762Y-101302438D02*
X140072619Y-101254819D01*
X140072619Y-101254819D02*
X140167857Y-101254819D01*
X140167857Y-101254819D02*
X140310714Y-101302438D01*
X140310714Y-101302438D02*
X140358333Y-101350057D01*
X140691667Y-101254819D02*
X141358333Y-101254819D01*
X141358333Y-101254819D02*
X140929762Y-102254819D01*
X152353333Y-110314819D02*
X152020000Y-109838628D01*
X151781905Y-110314819D02*
X151781905Y-109314819D01*
X151781905Y-109314819D02*
X152162857Y-109314819D01*
X152162857Y-109314819D02*
X152258095Y-109362438D01*
X152258095Y-109362438D02*
X152305714Y-109410057D01*
X152305714Y-109410057D02*
X152353333Y-109505295D01*
X152353333Y-109505295D02*
X152353333Y-109648152D01*
X152353333Y-109648152D02*
X152305714Y-109743390D01*
X152305714Y-109743390D02*
X152258095Y-109791009D01*
X152258095Y-109791009D02*
X152162857Y-109838628D01*
X152162857Y-109838628D02*
X151781905Y-109838628D01*
X152686667Y-109314819D02*
X153305714Y-109314819D01*
X153305714Y-109314819D02*
X152972381Y-109695771D01*
X152972381Y-109695771D02*
X153115238Y-109695771D01*
X153115238Y-109695771D02*
X153210476Y-109743390D01*
X153210476Y-109743390D02*
X153258095Y-109791009D01*
X153258095Y-109791009D02*
X153305714Y-109886247D01*
X153305714Y-109886247D02*
X153305714Y-110124342D01*
X153305714Y-110124342D02*
X153258095Y-110219580D01*
X153258095Y-110219580D02*
X153210476Y-110267200D01*
X153210476Y-110267200D02*
X153115238Y-110314819D01*
X153115238Y-110314819D02*
X152829524Y-110314819D01*
X152829524Y-110314819D02*
X152734286Y-110267200D01*
X152734286Y-110267200D02*
X152686667Y-110219580D01*
X144607142Y-94609580D02*
X144559523Y-94657200D01*
X144559523Y-94657200D02*
X144416666Y-94704819D01*
X144416666Y-94704819D02*
X144321428Y-94704819D01*
X144321428Y-94704819D02*
X144178571Y-94657200D01*
X144178571Y-94657200D02*
X144083333Y-94561961D01*
X144083333Y-94561961D02*
X144035714Y-94466723D01*
X144035714Y-94466723D02*
X143988095Y-94276247D01*
X143988095Y-94276247D02*
X143988095Y-94133390D01*
X143988095Y-94133390D02*
X144035714Y-93942914D01*
X144035714Y-93942914D02*
X144083333Y-93847676D01*
X144083333Y-93847676D02*
X144178571Y-93752438D01*
X144178571Y-93752438D02*
X144321428Y-93704819D01*
X144321428Y-93704819D02*
X144416666Y-93704819D01*
X144416666Y-93704819D02*
X144559523Y-93752438D01*
X144559523Y-93752438D02*
X144607142Y-93800057D01*
X145559523Y-94704819D02*
X144988095Y-94704819D01*
X145273809Y-94704819D02*
X145273809Y-93704819D01*
X145273809Y-93704819D02*
X145178571Y-93847676D01*
X145178571Y-93847676D02*
X145083333Y-93942914D01*
X145083333Y-93942914D02*
X144988095Y-93990533D01*
X146178571Y-93704819D02*
X146273809Y-93704819D01*
X146273809Y-93704819D02*
X146369047Y-93752438D01*
X146369047Y-93752438D02*
X146416666Y-93800057D01*
X146416666Y-93800057D02*
X146464285Y-93895295D01*
X146464285Y-93895295D02*
X146511904Y-94085771D01*
X146511904Y-94085771D02*
X146511904Y-94323866D01*
X146511904Y-94323866D02*
X146464285Y-94514342D01*
X146464285Y-94514342D02*
X146416666Y-94609580D01*
X146416666Y-94609580D02*
X146369047Y-94657200D01*
X146369047Y-94657200D02*
X146273809Y-94704819D01*
X146273809Y-94704819D02*
X146178571Y-94704819D01*
X146178571Y-94704819D02*
X146083333Y-94657200D01*
X146083333Y-94657200D02*
X146035714Y-94609580D01*
X146035714Y-94609580D02*
X145988095Y-94514342D01*
X145988095Y-94514342D02*
X145940476Y-94323866D01*
X145940476Y-94323866D02*
X145940476Y-94085771D01*
X145940476Y-94085771D02*
X145988095Y-93895295D01*
X145988095Y-93895295D02*
X146035714Y-93800057D01*
X146035714Y-93800057D02*
X146083333Y-93752438D01*
X146083333Y-93752438D02*
X146178571Y-93704819D01*
X152593333Y-107879580D02*
X152545714Y-107927200D01*
X152545714Y-107927200D02*
X152402857Y-107974819D01*
X152402857Y-107974819D02*
X152307619Y-107974819D01*
X152307619Y-107974819D02*
X152164762Y-107927200D01*
X152164762Y-107927200D02*
X152069524Y-107831961D01*
X152069524Y-107831961D02*
X152021905Y-107736723D01*
X152021905Y-107736723D02*
X151974286Y-107546247D01*
X151974286Y-107546247D02*
X151974286Y-107403390D01*
X151974286Y-107403390D02*
X152021905Y-107212914D01*
X152021905Y-107212914D02*
X152069524Y-107117676D01*
X152069524Y-107117676D02*
X152164762Y-107022438D01*
X152164762Y-107022438D02*
X152307619Y-106974819D01*
X152307619Y-106974819D02*
X152402857Y-106974819D01*
X152402857Y-106974819D02*
X152545714Y-107022438D01*
X152545714Y-107022438D02*
X152593333Y-107070057D01*
X153164762Y-107403390D02*
X153069524Y-107355771D01*
X153069524Y-107355771D02*
X153021905Y-107308152D01*
X153021905Y-107308152D02*
X152974286Y-107212914D01*
X152974286Y-107212914D02*
X152974286Y-107165295D01*
X152974286Y-107165295D02*
X153021905Y-107070057D01*
X153021905Y-107070057D02*
X153069524Y-107022438D01*
X153069524Y-107022438D02*
X153164762Y-106974819D01*
X153164762Y-106974819D02*
X153355238Y-106974819D01*
X153355238Y-106974819D02*
X153450476Y-107022438D01*
X153450476Y-107022438D02*
X153498095Y-107070057D01*
X153498095Y-107070057D02*
X153545714Y-107165295D01*
X153545714Y-107165295D02*
X153545714Y-107212914D01*
X153545714Y-107212914D02*
X153498095Y-107308152D01*
X153498095Y-107308152D02*
X153450476Y-107355771D01*
X153450476Y-107355771D02*
X153355238Y-107403390D01*
X153355238Y-107403390D02*
X153164762Y-107403390D01*
X153164762Y-107403390D02*
X153069524Y-107451009D01*
X153069524Y-107451009D02*
X153021905Y-107498628D01*
X153021905Y-107498628D02*
X152974286Y-107593866D01*
X152974286Y-107593866D02*
X152974286Y-107784342D01*
X152974286Y-107784342D02*
X153021905Y-107879580D01*
X153021905Y-107879580D02*
X153069524Y-107927200D01*
X153069524Y-107927200D02*
X153164762Y-107974819D01*
X153164762Y-107974819D02*
X153355238Y-107974819D01*
X153355238Y-107974819D02*
X153450476Y-107927200D01*
X153450476Y-107927200D02*
X153498095Y-107879580D01*
X153498095Y-107879580D02*
X153545714Y-107784342D01*
X153545714Y-107784342D02*
X153545714Y-107593866D01*
X153545714Y-107593866D02*
X153498095Y-107498628D01*
X153498095Y-107498628D02*
X153450476Y-107451009D01*
X153450476Y-107451009D02*
X153355238Y-107403390D01*
X166019406Y-110484818D02*
X166019406Y-109484818D01*
X166019406Y-109484818D02*
X166257501Y-109484818D01*
X166257501Y-109484818D02*
X166400358Y-109532437D01*
X166400358Y-109532437D02*
X166495596Y-109627675D01*
X166495596Y-109627675D02*
X166543215Y-109722913D01*
X166543215Y-109722913D02*
X166590834Y-109913389D01*
X166590834Y-109913389D02*
X166590834Y-110056246D01*
X166590834Y-110056246D02*
X166543215Y-110246722D01*
X166543215Y-110246722D02*
X166495596Y-110341960D01*
X166495596Y-110341960D02*
X166400358Y-110437199D01*
X166400358Y-110437199D02*
X166257501Y-110484818D01*
X166257501Y-110484818D02*
X166019406Y-110484818D01*
X167543215Y-110484818D02*
X166971787Y-110484818D01*
X167257501Y-110484818D02*
X167257501Y-109484818D01*
X167257501Y-109484818D02*
X167162263Y-109627675D01*
X167162263Y-109627675D02*
X167067025Y-109722913D01*
X167067025Y-109722913D02*
X166971787Y-109770532D01*
X169633334Y-105854818D02*
X169300001Y-105378627D01*
X169061906Y-105854818D02*
X169061906Y-104854818D01*
X169061906Y-104854818D02*
X169442858Y-104854818D01*
X169442858Y-104854818D02*
X169538096Y-104902437D01*
X169538096Y-104902437D02*
X169585715Y-104950056D01*
X169585715Y-104950056D02*
X169633334Y-105045294D01*
X169633334Y-105045294D02*
X169633334Y-105188151D01*
X169633334Y-105188151D02*
X169585715Y-105283389D01*
X169585715Y-105283389D02*
X169538096Y-105331008D01*
X169538096Y-105331008D02*
X169442858Y-105378627D01*
X169442858Y-105378627D02*
X169061906Y-105378627D01*
X170585715Y-105854818D02*
X170014287Y-105854818D01*
X170300001Y-105854818D02*
X170300001Y-104854818D01*
X170300001Y-104854818D02*
X170204763Y-104997675D01*
X170204763Y-104997675D02*
X170109525Y-105092913D01*
X170109525Y-105092913D02*
X170014287Y-105140532D01*
X160953333Y-98794818D02*
X160620000Y-98318627D01*
X160381905Y-98794818D02*
X160381905Y-97794818D01*
X160381905Y-97794818D02*
X160762857Y-97794818D01*
X160762857Y-97794818D02*
X160858095Y-97842437D01*
X160858095Y-97842437D02*
X160905714Y-97890056D01*
X160905714Y-97890056D02*
X160953333Y-97985294D01*
X160953333Y-97985294D02*
X160953333Y-98128151D01*
X160953333Y-98128151D02*
X160905714Y-98223389D01*
X160905714Y-98223389D02*
X160858095Y-98271008D01*
X160858095Y-98271008D02*
X160762857Y-98318627D01*
X160762857Y-98318627D02*
X160381905Y-98318627D01*
X161858095Y-97794818D02*
X161381905Y-97794818D01*
X161381905Y-97794818D02*
X161334286Y-98271008D01*
X161334286Y-98271008D02*
X161381905Y-98223389D01*
X161381905Y-98223389D02*
X161477143Y-98175770D01*
X161477143Y-98175770D02*
X161715238Y-98175770D01*
X161715238Y-98175770D02*
X161810476Y-98223389D01*
X161810476Y-98223389D02*
X161858095Y-98271008D01*
X161858095Y-98271008D02*
X161905714Y-98366246D01*
X161905714Y-98366246D02*
X161905714Y-98604341D01*
X161905714Y-98604341D02*
X161858095Y-98699579D01*
X161858095Y-98699579D02*
X161810476Y-98747199D01*
X161810476Y-98747199D02*
X161715238Y-98794818D01*
X161715238Y-98794818D02*
X161477143Y-98794818D01*
X161477143Y-98794818D02*
X161381905Y-98747199D01*
X161381905Y-98747199D02*
X161334286Y-98699579D01*
D12*
%TO.C,C3*%
X147359420Y-91990000D02*
X147640580Y-91990000D01*
X147359420Y-93010000D02*
X147640580Y-93010000D01*
D11*
%TO.C,J3*%
X164920000Y-100075000D02*
X164920000Y-100800000D01*
X164920000Y-100800000D02*
X165345000Y-100800000D01*
X165345000Y-97200000D02*
X165345000Y-96200000D01*
X165345000Y-100800000D02*
X165345000Y-101800000D01*
X167095000Y-103150000D02*
X168495000Y-103150000D01*
X168495000Y-94850000D02*
X167095000Y-94850000D01*
X170895000Y-103150000D02*
X171045000Y-103150000D01*
X171045000Y-94850000D02*
X170895000Y-94850000D01*
X171045000Y-95150000D02*
X171045000Y-94850000D01*
X171045000Y-102850000D02*
X171495000Y-102850000D01*
X171045000Y-103150000D02*
X171045000Y-102850000D01*
X171495000Y-95150000D02*
X171045000Y-95150000D01*
D12*
%TO.C,C4*%
X147162164Y-105890000D02*
X147377836Y-105890000D01*
X147162164Y-106610000D02*
X147377836Y-106610000D01*
%TO.C,C9*%
X155640000Y-97642164D02*
X155640000Y-97857836D01*
X156360000Y-97642164D02*
X156360000Y-97857836D01*
%TO.C,R4*%
X136220000Y-93553641D02*
X136220000Y-93246359D01*
X136980000Y-93553641D02*
X136980000Y-93246359D01*
%TO.C,C5*%
X140515000Y-98177836D02*
X140515000Y-97962164D01*
X141235000Y-98177836D02*
X141235000Y-97962164D01*
%TO.C,C11*%
X143660000Y-101357836D02*
X143660000Y-101142164D01*
X144380000Y-101357836D02*
X144380000Y-101142164D01*
%TO.C,C1*%
X159176248Y-101502500D02*
X159698752Y-101502500D01*
X159176248Y-102972500D02*
X159698752Y-102972500D01*
%TO.C,C12*%
X143607836Y-104390000D02*
X143392164Y-104390000D01*
X143607836Y-105110000D02*
X143392164Y-105110000D01*
%TO.C,J4*%
X153350000Y-85670000D02*
X153350000Y-88330000D01*
X161030000Y-85670000D02*
X153350000Y-85670000D01*
X161030000Y-85670000D02*
X161030000Y-88330000D01*
X161030000Y-88330000D02*
X153350000Y-88330000D01*
X162300000Y-85670000D02*
X163630000Y-85670000D01*
X163630000Y-85670000D02*
X163630000Y-87000000D01*
%TO.C,C6*%
X143640000Y-97107836D02*
X143640000Y-96892164D01*
X144360000Y-97107836D02*
X144360000Y-96892164D01*
%TO.C,U2*%
X146390000Y-96640000D02*
X146390000Y-97090000D01*
X146390000Y-103860000D02*
X146390000Y-103410000D01*
X146840000Y-96640000D02*
X146390000Y-96640000D01*
X146840000Y-103860000D02*
X146390000Y-103860000D01*
X153160000Y-96640000D02*
X153610000Y-96640000D01*
X153160000Y-103860000D02*
X153610000Y-103860000D01*
X153610000Y-96640000D02*
X153610000Y-97090000D01*
X153610000Y-103860000D02*
X153610000Y-103410000D01*
X145800000Y-97090000D02*
X145460000Y-96620000D01*
X146140000Y-96620000D01*
X145800000Y-97090000D01*
G36*
X145800000Y-97090000D02*
G01*
X145460000Y-96620000D01*
X146140000Y-96620000D01*
X145800000Y-97090000D01*
G37*
%TO.C,C13*%
X143607836Y-105890000D02*
X143392164Y-105890000D01*
X143607836Y-106610000D02*
X143392164Y-106610000D01*
%TO.C,C2*%
X163202500Y-107998752D02*
X163202500Y-107476248D01*
X164672500Y-107998752D02*
X164672500Y-107476248D01*
%TO.C,Y1*%
X136625000Y-96950000D02*
X136625000Y-100950000D01*
X139925000Y-96950000D02*
X136625000Y-96950000D01*
%TO.C,FB1*%
X144740000Y-105337221D02*
X144740000Y-105662779D01*
X145760000Y-105337221D02*
X145760000Y-105662779D01*
%TO.C,U1*%
X155840000Y-105900000D02*
X155840000Y-109660000D01*
X155840000Y-109660000D02*
X157100000Y-109660000D01*
X162660000Y-105900000D02*
X162660000Y-109660000D01*
X162660000Y-109660000D02*
X161400000Y-109660000D01*
X162890000Y-104860000D02*
X162560000Y-104620000D01*
X162890000Y-104380000D01*
X162890000Y-104860000D01*
G36*
X162890000Y-104860000D02*
G01*
X162560000Y-104620000D01*
X162890000Y-104380000D01*
X162890000Y-104860000D01*
G37*
%TO.C,SW1*%
X131495000Y-92150000D02*
X131495000Y-97850000D01*
X132505000Y-98450000D02*
X133295000Y-98450000D01*
X133295000Y-91550000D02*
X132505000Y-91550000D01*
X134345000Y-93400000D02*
X134345000Y-95100000D01*
X134345000Y-96400000D02*
X134345000Y-96600000D01*
%TO.C,R2*%
X148423641Y-109480000D02*
X148116359Y-109480000D01*
X148423641Y-110240000D02*
X148116359Y-110240000D01*
%TO.C,C7*%
X140515000Y-100177836D02*
X140515000Y-99962164D01*
X141235000Y-100177836D02*
X141235000Y-99962164D01*
%TO.C,R3*%
X150366359Y-109480000D02*
X150673641Y-109480000D01*
X150366359Y-110240000D02*
X150673641Y-110240000D01*
%TO.C,J2*%
X143870000Y-114830000D02*
X143870000Y-113500000D01*
X145200000Y-114830000D02*
X143870000Y-114830000D01*
X146470000Y-112170000D02*
X154150000Y-112170000D01*
X146470000Y-114830000D02*
X146470000Y-112170000D01*
X146470000Y-114830000D02*
X154150000Y-114830000D01*
X154150000Y-114830000D02*
X154150000Y-112170000D01*
%TO.C,C10*%
X147392164Y-93890000D02*
X147607836Y-93890000D01*
X147392164Y-94610000D02*
X147607836Y-94610000D01*
%TO.C,C8*%
X152887836Y-105910000D02*
X152672164Y-105910000D01*
X152887836Y-106630000D02*
X152672164Y-106630000D01*
%TO.C,J1*%
X138600000Y-85670000D02*
X138600000Y-88330000D01*
X146280000Y-85670000D02*
X138600000Y-85670000D01*
X146280000Y-85670000D02*
X146280000Y-88330000D01*
X146280000Y-88330000D02*
X138600000Y-88330000D01*
X147550000Y-85670000D02*
X148880000Y-85670000D01*
X148880000Y-85670000D02*
X148880000Y-87000000D01*
%TO.C,D1*%
X165965000Y-106315000D02*
X165965000Y-108600000D01*
X167435000Y-106315000D02*
X165965000Y-106315000D01*
X167435000Y-108600000D02*
X167435000Y-106315000D01*
%TO.C,R1*%
X167146359Y-105020000D02*
X167453641Y-105020000D01*
X167146359Y-105780000D02*
X167453641Y-105780000D01*
%TO.C,R5*%
X159240000Y-98186359D02*
X159240000Y-98493641D01*
X160000000Y-98186359D02*
X160000000Y-98493641D01*
%TD*%
M02*
